<svg width="30" height="30" fill="none" xmlns="http://www.w3.org/2000/svg"><path d="m16.406 5.876 8.25 8.25c.125.125.214.26.267.406.051.146.077.302.077.469 0 .166-.026.323-.078.469a1.104 1.104 0 0 1-.266.406l-8.25 8.25c-.229.229-.515.349-.858.36-.345.01-.642-.11-.892-.36a1.17 1.17 0 0 1-.391-.859c-.01-.344.11-.641.36-.891l6.125-6.125H6.781c-.354 0-.651-.12-.891-.359a1.213 1.213 0 0 1-.359-.891c0-.354.12-.651.359-.89.24-.24.537-.36.891-.36H20.75l-6.125-6.125c-.23-.23-.35-.521-.36-.875a1.09 1.09 0 0 1 .36-.875c.23-.25.52-.375.875-.375.354 0 .656.125.906.375z" fill="#fff"/></svg>