<svg width="119" height="123" fill="none" xmlns="http://www.w3.org/2000/svg"><mask id="a" fill="#fff"><path fill-rule="evenodd" clip-rule="evenodd" d="M9.003 77.662A32.696 32.696 0 0 1 0 55.085c0-17.5 13.703-31.8 30.965-32.757C36.724 8.998 47.645 0 60.168 0c17.2 0 31.377 16.97 33.31 38.832 14.567 3.184 25.406 15.267 25.406 29.688 0 16.849-14.797 30.508-33.05 30.508-5.429 0-10.551-1.208-15.07-3.349C69.038 111.03 54.98 123 37.893 123c-18.254 0-33.05-13.659-33.05-30.508 0-5.383 1.51-10.44 4.16-14.83z"/></mask><path d="m9.003 77.662.856.517.394-.653-.524-.552-.726.688zm21.962-55.334.055.999.618-.035.245-.567-.918-.397zm62.513 16.504-.996.088.065.732.718.157.213-.977zM70.765 95.679l.428-.904-1.266-.599-.156 1.391.993.112zM9.728 76.974A31.696 31.696 0 0 1 1 55.085h-2C-1 64.1 2.529 72.29 8.278 78.35l1.45-1.376zM1 55.085c0-16.967 13.285-30.832 30.02-31.758l-.11-1.997C13.12 22.315-1 37.05-1 55.085h2zm30.883-32.36C37.538 9.634 48.165 1 60.168 1v-2C47.124-1 35.91 8.36 30.047 21.932l1.836.793zM60.168 1c16.473 0 30.405 16.336 32.314 37.92l1.992-.176C92.516 16.605 78.096-1 60.168-1v2zm33.096 38.809c14.172 3.098 24.62 14.822 24.62 28.71h2c0-14.951-11.229-27.393-26.192-30.664l-.427 1.954zm24.62 28.71c0 16.224-14.273 29.508-32.05 29.508v2c18.728 0 34.05-14.032 34.05-31.507h-2zm-32.05 29.508c-5.28 0-10.256-1.174-14.641-3.252l-.857 1.808c4.652 2.203 9.92 3.444 15.497 3.444v-2zm-16.063-2.46C68.108 110.356 54.53 122 37.892 122v2c17.538 0 32.077-12.295 33.866-28.21l-1.987-.223zM37.892 122c-17.777 0-32.05-13.285-32.05-29.508h-2c0 17.475 15.322 31.508 34.05 31.508v-2zM5.843 92.492c0-5.192 1.456-10.071 4.017-14.313l-1.712-1.034c-2.74 4.539-4.305 9.774-4.305 15.347h2z" fill="#000" mask="url(#a)"/></svg>