<svg width="36" height="36" viewBox="0 0 36 36" fill="none" xmlns="http://www.w3.org/2000/svg">
<rect width="36" height="36" rx="10" fill="#EAEAEA"/>
<path fill-rule="evenodd" clip-rule="evenodd" d="M10.2903 24.0232C9.89282 24.4067 9.89282 25.0283 10.2903 25.4118L10.3169 25.4374C10.7144 25.8209 11.3588 25.8209 11.7563 25.4374L17.9999 19.4142L24.2436 25.4374C24.6411 25.8209 25.2855 25.8209 25.683 25.4374L25.7096 25.4118C26.1071 25.0283 26.1071 24.4067 25.7096 24.0232L19.4659 18L25.7096 11.9768C26.1071 11.5933 26.1071 10.9716 25.7096 10.5882L25.683 10.5625C25.2855 10.1791 24.6411 10.1791 24.2436 10.5625L17.9999 16.5858L11.7563 10.5625C11.3588 10.1791 10.7144 10.1791 10.3169 10.5625L10.2903 10.5882C9.89282 10.9716 9.89282 11.5933 10.2903 11.9768L16.534 18L10.2903 24.0232Z" fill="black" fill-opacity="0.85"/>
</svg>
