<svg width="125" height="25" viewBox="0 0 125 25" fill="none" xmlns="http://www.w3.org/2000/svg">
<path d="M0.436646 0.261719V19.8376H3.84481V2.90939H9.92881V19.8376H13.337V0.261719H0.436646Z" fill="black"/>
<path d="M19.2412 5.66972H16.1429V23.9217H19.4947V18.1757C20.3397 19.4432 21.579 20.1192 23.0155 20.1192C26.2829 20.1192 28.5362 17.4997 28.5362 12.7396C28.5362 8.00755 26.3392 5.38805 23.1845 5.38805C21.6072 5.38805 20.3115 6.12039 19.4102 7.50055L19.2412 5.66972ZM22.1705 17.4716C20.396 17.4716 19.4947 16.0351 19.4947 12.7677C19.4947 9.47222 20.4524 8.03572 22.3395 8.03572C24.1704 8.03572 25.0717 9.47222 25.0717 12.7396C25.0717 16.0351 24.114 17.4716 22.1705 17.4716Z" fill="black"/>
<path d="M41.2295 10.1764C41.2295 6.74005 39.4831 5.44439 35.9341 5.44439C33.709 5.44439 31.9626 6.14855 30.9486 6.74005V9.52855C31.85 8.85255 33.8216 8.12022 35.5398 8.12022C37.1453 8.12022 37.8776 8.68355 37.8776 10.2046V10.9932H37.3425C32.2161 10.9932 29.9346 12.6832 29.9346 15.5562C29.9346 18.4292 31.681 20.0347 34.2723 20.0347C36.244 20.0347 37.089 19.3869 37.7368 18.7109H37.8776C37.9058 19.0771 38.0185 19.5559 38.1311 19.8376H41.3985C41.2858 18.6827 41.2295 17.5279 41.2295 16.3731V10.1764ZM37.8776 16.4576C37.4551 17.0772 36.6665 17.5842 35.4835 17.5842C34.0751 17.5842 33.371 16.7956 33.371 15.5844C33.371 13.9789 34.5258 13.3874 37.3988 13.3874H37.8776V16.4576Z" fill="black"/>
<path d="M52.2336 19.8376H56.0361L50.6563 12.3171L55.3883 5.66972H52.0083L47.2763 12.3171V5.66972H43.9244V19.8376H47.2763V12.9931L52.2336 19.8376Z" fill="black"/>
<path d="M67.2735 8.31739V5.66972H56.035V8.31739H59.9783V19.8376H63.3302V8.31739H67.2735Z" fill="black"/>
<path d="M69.2579 5.66972V19.8376H72.2436L77.3699 11.0777V19.8376H80.6091V5.66972H77.6234L72.4971 14.4296V5.66972H69.2579Z" fill="black"/>
<path d="M91.733 19.8376H95.5355L90.1556 12.3171L94.8876 5.66972H91.5076L86.7756 12.3171V5.66972H83.4238V19.8376H86.7756V12.9931L91.733 19.8376Z" fill="black"/>
<path d="M98.4846 24.2034C101.611 24.2034 102.766 21.9782 103.724 19.0771L108.146 5.66972H104.907L101.78 16.3167L98.6536 5.66972H95.1328L100.006 20.4572C99.6394 21.1332 99.1043 21.5557 98.1748 21.5557C97.5551 21.5557 97.0199 21.3586 96.6538 20.9924V23.7246C96.6538 23.7246 97.1608 24.2034 98.4846 24.2034Z" fill="black"/>
<path d="M121.501 19.8376H124.768L124.712 5.66972H120.121L117.051 15.1056L114.29 5.66972H109.417V19.8376H112.262V9.24689L115.332 19.8376H118.065L121.501 9.24689V19.8376Z" fill="black"/>
</svg>
