<svg width="26" height="26" viewBox="0 0 26 26" fill="none" xmlns="http://www.w3.org/2000/svg">
<path fill-rule="evenodd" clip-rule="evenodd" d="M13 26C20.1797 26 26 20.1797 26 13C26 5.8203 20.1797 0 13 0C5.8203 0 0 5.8203 0 13C0 20.1797 5.8203 26 13 26ZM13.4726 7.55515H14.6337V20.4513H17.2323V5.53711H13.4588C9.6577 5.53711 7.65348 7.49986 7.65348 10.3749C7.65348 12.6694 8.74543 14.024 10.6944 15.42L7.30792 20.4651H10.1277L13.9011 14.8256L12.588 13.941C10.9985 12.8629 10.2244 12.0197 10.2244 10.2228C10.2244 8.63329 11.344 7.55515 13.4726 7.55515Z" fill="black"/>
</svg>
