<svg width="32" height="18" viewBox="0 0 32 18" fill="none" xmlns="http://www.w3.org/2000/svg">
<path d="M31.0249 16.1507C31.0249 16.0274 30.9003 16.0274 30.9003 15.9041C30.4019 14.9178 29.2806 13.6849 27.7854 12.3288C27.0378 11.7123 26.664 11.2192 26.4148 10.9726C26.041 10.4795 26.041 10.1096 26.1656 9.61645C26.2902 9.24658 26.7886 8.63013 27.6608 7.52054C28.1592 6.9041 28.4084 6.53425 28.7821 6.16439C30.6511 3.69863 31.5233 2.09588 31.2741 1.35615L31.1495 1.23288C31.0249 1.10959 30.9003 0.986306 30.6511 0.986306C30.4019 0.863018 30.0281 0.863018 29.6543 0.986306H24.9196C24.795 0.986306 24.795 0.986306 24.5458 0.986306C24.4212 0.986306 24.2966 0.986306 24.2966 0.986306H24.172H24.0474L23.9228 1.10958C23.7982 1.23287 23.7982 1.23287 23.7982 1.35615C23.2998 2.71232 22.6768 3.82191 22.0539 5.05479C21.6801 5.67123 21.3063 6.28768 20.9325 6.78083C20.5587 7.27398 20.3095 7.64383 20.0603 7.89041C19.8111 8.13698 19.5619 8.26027 19.4373 8.50685C19.3127 8.63013 19.0635 8.75343 19.0635 8.63014C18.9389 8.63014 18.8143 8.63013 18.8143 8.50685C18.6897 8.38356 18.5651 8.26027 18.4405 8.13698C18.3159 8.01369 18.3159 7.76712 18.1913 7.52054C18.1913 7.27397 18.1913 7.02739 18.1913 6.9041C18.1913 6.78082 18.1913 6.41096 18.1913 6.16439C18.1913 5.79452 18.1913 5.54794 18.1913 5.42465C18.1913 5.05479 18.1913 4.56165 18.1913 4.0685C18.1913 3.57535 18.1913 3.20547 18.1913 2.9589C18.1913 2.71232 18.1913 2.34246 18.1913 2.09589C18.1913 1.72602 18.1913 1.47944 18.1913 1.35615C18.1913 1.23287 18.0667 0.986298 18.0667 0.86301C17.9421 0.739723 17.8175 0.616431 17.6929 0.493143C17.5683 0.369856 17.3191 0.369859 17.1945 0.246572C16.5715 0.123284 15.824 0 14.9518 0C12.9582 0 11.5876 0.123292 11.0892 0.369867C10.84 0.493155 10.5908 0.616435 10.4663 0.86301C10.2171 1.10959 10.217 1.23288 10.3416 1.23288C10.9646 1.35617 11.463 1.60273 11.7122 1.97259L11.8368 2.21918C11.9614 2.34247 11.9614 2.58904 12.086 2.9589C12.2106 3.32876 12.2106 3.69862 12.2106 4.19178C12.2106 4.9315 12.2106 5.67124 12.2106 6.16439C12.2106 6.78083 12.086 7.15068 12.086 7.52054C12.086 7.8904 11.9614 8.13699 11.8368 8.26028C11.7122 8.50685 11.7122 8.63014 11.5876 8.63014C11.5876 8.63014 11.5876 8.75342 11.463 8.75342C11.3384 8.75342 11.2138 8.87671 10.9646 8.87671C10.84 8.87671 10.5908 8.75343 10.4663 8.63014C10.2171 8.50686 9.96786 8.26028 9.84326 8.0137C9.59406 7.76713 9.34486 7.39725 9.09566 6.9041C8.84647 6.41095 8.47266 5.91781 8.22346 5.17808L7.97429 4.68494C7.84969 4.43836 7.60049 3.9452 7.3513 3.32877C7.1021 2.71233 6.8529 2.21918 6.6037 1.60274C6.4791 1.35617 6.35452 1.23287 6.22992 1.10958H6.10532C6.10532 1.10958 5.9807 0.986306 5.85611 0.986306C5.73151 0.986306 5.60693 0.86301 5.48233 0.86301H0.996789C0.498396 0.86301 0.249204 0.986294 0.124606 1.10958L0 1.23288C0 1.23288 0 1.35616 0 1.47945C0 1.60274 7.60301e-06 1.72602 0.124606 1.97259C0.747596 3.45205 1.49518 4.93151 2.24277 6.41096C2.99036 7.76712 3.73795 9.00001 4.23635 9.86302C4.85934 10.726 5.35772 11.589 5.98071 12.3288C6.6037 13.0685 6.97749 13.5616 7.10209 13.8082C7.35128 14.0548 7.47587 14.1781 7.60047 14.3014L7.97429 14.6712C8.22348 14.9178 8.59727 15.2877 9.09566 15.6575C9.59406 16.0274 10.217 16.3973 10.84 16.7671C11.463 17.137 12.2106 17.3836 12.9582 17.6302C13.8304 17.8767 14.578 18 15.3256 17.8767H17.1945C17.5683 17.8767 17.8175 17.7534 18.0667 17.5069L18.1913 17.3836C18.1913 17.2603 18.3159 17.2603 18.3159 17.137C18.3159 17.0137 18.3159 16.8904 18.3159 16.6438C18.3159 16.1507 18.3159 15.7808 18.4405 15.411C18.5651 15.0411 18.5651 14.7945 18.6897 14.548C18.8143 14.3014 18.9389 14.1781 19.0635 14.0548C19.1881 13.9315 19.3127 13.8082 19.3127 13.8082H19.4373C19.6865 13.6849 20.0603 13.8082 20.3095 14.0548C20.6833 14.3014 21.0571 14.6712 21.3063 15.0411C21.5555 15.411 21.9293 15.7808 22.4277 16.274C22.9261 16.7671 23.2999 17.137 23.549 17.2603L23.9228 17.5069C24.172 17.6301 24.4212 17.7534 24.795 17.8767C25.1688 18 25.418 18 25.6672 18L29.9036 17.8767C30.2774 17.8767 30.6511 17.7534 30.9003 17.6302C31.1495 17.5069 31.2741 17.3836 31.2741 17.137C31.2741 17.0137 31.2741 16.7671 31.2741 16.6438C31.0249 16.3973 31.0249 16.274 31.0249 16.1507Z" fill="#393939"/>
</svg>
