<svg width="159" height="138" fill="none" xmlns="http://www.w3.org/2000/svg"><g clip-path="url(#a)" fill="#000"><path d="M134.428 102.943c-1.857 0-9.77-1.929-20.136-4.92-7.068-2.04-21.315-6.304-37.238-12.034-15.05-5.41-27.15-10.511-35.95-15.152-5.1-2.698-9.05-5.228-11.752-7.534-3.02-2.586-4.545-4.962-4.545-7.072h.831c0 6.709 18.363 16.996 51.693 28.975 26.692 9.588 53.73 16.899 57.097 16.899v.838zM134.442 101.546v-.838c.485 0 .776-.028.957-.056-1.068-.825-5.96-2.726-10.713-4.557-6.666-2.572-14.954-5.787-21.675-9.197-8.052-4.095-11.974-7.562-11.974-10.609h.832c0 6.22 20.718 14.243 33.108 19.037 3.257 1.258 6.07 2.349 8.079 3.215 2.952 1.286 3.437 1.789 3.34 2.335-.097.559-.817.67-1.954.67z"/><path d="m94.945 82.425 5.336-11.308-30.406 11.825 25.07-.517zM42.504 60.187H0l6.93-2.684V42.24c0-2.656 2.134-4.795 4.753-4.795H42.49c2.634 0 4.754 2.153 4.754 4.795v13.152c.014 2.656-2.12 4.795-4.74 4.795z"/><path d="M95 82.662c-3.852 0-6.998-3.173-6.998-7.06V12.845c0-3.886 3.146-7.059 6.999-7.059 3.852 0 6.998 3.173 6.998 7.059v62.745c0 3.886-3.146 7.073-6.998 7.073zM133.82 102.259h-.832c0-1.663-2.3-4.529-13.249-8.736-7.206-2.768-17.24-5.773-29.823-8.932-22.23-5.577-43.863-9.532-44.611-9.588l.014-.839c.748 0 22.936 4.123 44.583 9.547 12.667 3.173 22.783 6.206 30.059 8.987 9.327 3.593 13.859 6.71 13.859 9.561z"/><path d="M54.464 77.995H39.08c-3.05 0-5.544-2.516-5.544-5.592 0-3.075 2.495-5.59 5.544-5.59h15.383c3.049 0 5.543 2.516 5.543 5.59 0 3.076-2.494 5.591-5.543 5.591z"/><path d="M37.002 86.675V75.898h3.465l-3.465 10.777zM134.844 102.527h-.831c0-6.206-7.553-15.11-22.437-26.446-12.487-9.532-27.26-18.618-37.044-24.628-9.84-6.052-10.408-6.486-10.228-7.129.028-.084.138-.363.554-.363v.839c.056 0 .166-.056.222-.182.07-.126.028-.252.014-.294.346.546 4.767 3.271 9.881 6.416 9.798 6.024 24.585 15.124 37.113 24.656 6.902 5.27 12.307 10.064 16.049 14.257 4.448 5.004 6.707 9.337 6.707 12.874z"/><path d="M73.88 40.828h12.417L62.641 69.65 73.88 40.828z"/><path d="M68.948 54.304h-1.733c-10.061 0-18.293-8.303-18.293-18.45v-1.747c0-10.148 8.232-18.45 18.293-18.45h1.733c10.061 0 18.293 8.302 18.293 18.45v1.747c0 10.147-8.232 18.45-18.293 18.45z"/><path d="M133.389 101.547v-.839c.083 0 .235-.014.263-.084.028-.07.152-.489-.651-2.04-.582-1.105-1.511-2.572-2.855-4.487-2.564-3.634-6.306-8.457-10.644-14.048-16.464-21.19-41.34-53.24-41.34-71.928h.832c0 18.395 24.765 50.305 41.16 71.425 4.337 5.591 8.093 10.427 10.657 14.076 3.728 5.283 3.922 6.667 3.589 7.366-.11.251-.388.559-1.011.559z"/><path d="M83.706 0H54.05v11.783h29.657V0z"/><path d="M55.574 6.332 45.318 0h10.256v6.332zM140.707 131.332c-2.578 0-5.225-2.32-7.096-4.207l2.148-2.181c3.493 3.523 4.92 3.383 5.267 3.257.499-.182.984-.978 1.344-2.25.416-1.454.61-3.257.79-4.836.222-1.971.36-3.117.762-3.9l2.716 1.398c-.166.349-.332 1.803-.443 2.851-.416 3.788-.942 8.512-4.158 9.658-.429.14-.887.21-1.33.21z"/><path d="M149.673 136.223h-3.049c0-5.032-1.483-16.424-2.106-18.171l2.868-1.048c.86 2.376 2.287 14.411 2.287 19.219z"/><path d="M148.398 119.033h-6.236c0-4.263 2.675-14.062 2.98-15.166l6 1.691c-1.053 3.844-2.744 10.903-2.744 13.475z"/><path d="M136.674 115.12c-.458 0-.887-.098-1.289-.28-2.758-1.244-2.426-5.87-1.816-9.756l3.007.475c-.817 5.27-.055 6.346.056 6.472.208.014 2.19-.07 8.204-7.492l2.356 1.943c-4.795 5.926-8.066 8.638-10.518 8.638zM148.384 104.286a1.675 1.675 0 0 1-1.663-1.677v-2.139c0-.922.748-1.677 1.663-1.677.914 0 1.663.755 1.663 1.677v2.139c0 .936-.749 1.677-1.663 1.677z"/><path d="M149.645 100.009h-2.453a1.182 1.182 0 0 1-1.178-1.188c0-.657.526-1.188 1.178-1.188h2.453c.651 0 1.178.531 1.178 1.188 0 .657-.527 1.188-1.178 1.188zM146.707 138.001v-1.189h3.631c.651 0 1.178.532 1.178 1.189M134.401 123.742l.832.839-2.564 2.586a1.173 1.173 0 0 1-1.663 0"/><path d="M151.169 100.706h-4.13v-1.132h3.063l1.067 1.132zM156.602 122.456c-3.007 0-6.111 0-7.456-3.159-.998-2.306-.998-6.108-.998-13.684h3.049c0 6.696 0 10.735.735 12.454.429 1.007 1.095 1.3 4.67 1.3v3.089zM134.263 103.546c1.01 0 1.829-.827 1.829-1.846a1.837 1.837 0 0 0-1.829-1.844c-1.01 0-1.829.826-1.829 1.844 0 1.019.819 1.846 1.829 1.846z"/><path d="M136.049 106.341h-1.385c0-1.468 0-2.558-.097-2.935h-.305v-1.398c.554 0 1.33 0 1.607.95.18.559.18 1.44.18 3.383zM146.25 106.158v-1.677c.36 0 .776 0 .929-.042.138-.307.138-1.537.138-2.935h1.663c0 2.097 0 3.061-.319 3.718-.471.936-1.372.936-2.411.936zM158.446 122.735a.558.558 0 0 1-.555-.559c0-.643 0-1.146-.138-1.23-.277-.168-1.178-.168-2.55-.168a.558.558 0 0 1 0-1.118c1.774 0 2.577 0 3.118.322.679.405.679 1.118.679 2.194a.558.558 0 0 1-.554.559z"/></g><defs><clipPath id="a"><path fill="#fff" d="M0 0h159v138H0z"/></clipPath></defs></svg>