<svg width="154" height="134" fill="none" xmlns="http://www.w3.org/2000/svg"><g clip-path="url(#a)" fill="#000"><path d="m50.944 49.137 2.941 3.255c-2.767 2.084-6.27 6.772-10.422 13.24l2.984.173c.043-.086.13-.173.173-.26 5.406-8.248 8.044-10.722 9.298-11.46.735 0 2.162-.13 2.81-1.215l-8.173-8.768c-.951 1.519-.778 3.776.39 5.035zM12.931 130.57c-.605.651-1.384 1.736-1.427 2.952l10.595.477c.043-1.953-1.124-3.646-2.638-3.689l-3.07-.217c.26-.434.519-.912.821-1.433l-3.07.13c-.476.695-.865 1.303-1.211 1.78zM24.996 103.746H18.293c-3.893 10.765-11.288 21.661-13.32 24.526l9.644-.348 3.027-.13 1.99-.087c3.675-5.035 5.708-14.585 6.573-23.961h-1.211zM45.928 66.63l-2.984-.173h-.433L27.764 86.815l-.302.478-.303.434-2.984 4.08-.303.434-.303.434-.259.348-.39-.217-.129-.13h-.303l.692.954.087.13 2.378 3.3.26.347.216.347.476.608.389.564.26.347.172-.173 27.419-31.992-8.91-.477zM12.369 41.975l1.686.521h.13c.173 0 .346-.13.432-.303.087-.218-.043-.478-.302-.565l-1.687-.52c-2.032-.652-3.243-2.735-2.638-4.689.087-.217-.043-.477-.303-.564-.216-.087-.475.043-.562.304-.692 2.43.735 5.035 3.244 5.816zM11.072 82.52l2.076 6.685a6.33 6.33 0 0 1 2.984-.738h3.33l2.422 3.342h1.254l3.719-5.122-2.335-7.596c.13-.087.26-.13.389-.217.13-.087.26-.13.39-.217 3.589-2.214 6.702-5.166 8.26-8.508a4.899 4.899 0 0 0 3.372-4.645c0-2.04-1.297-3.82-3.07-4.558.043-.217.043-.434.043-.65a4.845 4.845 0 0 0-4.843-4.862 4.845 4.845 0 0 0-4.844 4.861c0 1.216.432 2.344 1.254 3.256-.778 1.346-2.076 2.691-3.59 3.907l.13.434.13.434c1.86-1.433 3.373-3.039 4.238-4.645l.173-.304-.216-.217c-.778-.781-1.21-1.78-1.21-2.865a3.976 3.976 0 0 1 3.978-3.993 3.976 3.976 0 0 1 3.978 3.993c0 .13 0 .26-.043.434-.303-.043-.605-.087-.951-.087-2.682 0-4.844 2.17-4.844 4.906 0 .781.173 1.519.52 2.17-1.212 1.476-2.769 2.865-4.542 4.124l.13.434.13.434c1.816-1.215 3.46-2.648 4.757-4.21.086.086.13.173.216.26-.995 1.693-2.681 3.342-4.757 4.775a1314.47 1314.47 0 0 0-.778.52l-.26-.824-.13-.434-.13-.39-1.08-3.474-.13-.434-.13-.434-.346-1.085c-.908-2.952-3.676-4.862-6.617-4.862-.692 0-1.384.087-2.032.304-.476.174-.952.348-1.384.608.26.087.519.217.778.347 1.86.955 3.2 2.605 3.806 4.601l.735 2.909.087.434.086.434.087.434-.433.087-.432.087-.087-.304-.086-.434-.087-.434-.735-2.996c-.519-1.736-1.73-3.168-3.373-4.036a6.366 6.366 0 0 0-1.254-.521l-.52-.13a2.159 2.159 0 0 0-.518-.087 6.742 6.742 0 0 0-2.941.26c-1.773.564-3.2 1.736-4.065 3.386a6.758 6.758 0 0 0-.779 2.865 6.43 6.43 0 0 0 .217 2.04c.043.13.043.26.086.39l1.038 4.124 1.643-.52v.13c.52 3.342 2.768 5.6 6.185 6.337.173.044.302.044.475.087.13-.043.303 0 .476 0zM4.888 76.4c-.043-.174-.087-.304-.087-.478v-.26l.303-.087 2.638-.825.173-.043c.173.217.26.477.303.738.043.347.173.738.346 1.085.086.173.216.304.303.477.13.174.302.304.475.434a.597.597 0 0 0 .173.13c.865.565 2.162.912 4.282.695 3.027-.26 6.443-1.563 9.34-3.386l.39-.26.39-.26c2.378-1.607 4.367-3.517 5.405-5.47l.173-.304-.216-.217a7.554 7.554 0 0 1-.52-.608l-.259-.39c-.086-.174-.13-.304-.216-.478a3.976 3.976 0 0 1 3.72-5.383c.259 0 .518.044.778.087.13.044.302.044.432.087.13.044.26.087.39.174a4.01 4.01 0 0 1 2.421 3.69c0 1.78-1.21 3.385-2.94 3.863l-.217.043-.086.174c-1.211 2.822-4.109 5.86-7.785 8.204-.13.087-.26.174-.389.217-.13.087-.26.174-.39.217-3.026 1.78-6.53 3.082-10.119 3.43-.475.043-.951.043-1.384.043-.691 0-1.34-.044-1.946-.174-.173-.043-.302-.043-.475-.087a7.073 7.073 0 0 1-.476-.13c-2.681-.651-4.411-2.387-4.93-4.948zM12.887 43.494c-.778-.26-1.6.174-1.816.912-.216.738.216 1.562.995 1.823.13.043.303.087.475.087.217 0 .433-.044.65-.13a1.52 1.52 0 0 0 .734-.825c.217-.782-.26-1.606-1.038-1.867zm.173 1.563c-.043.13-.13.26-.259.304-.13.086-.303.086-.476.043-.302-.087-.519-.434-.432-.738a.616.616 0 0 1 .562-.39c.086 0 .13 0 .216.043.303.13.476.434.39.738zM17.341 45.143a1.521 1.521 0 0 0-.735.825c-.216.738.217 1.563.995 1.823.13.043.303.087.476.087.216 0 .432-.044.648-.13.346-.174.606-.478.736-.825.13-.348.086-.782-.13-1.085a1.275 1.275 0 0 0-.865-.695c-.39-.217-.779-.174-1.125 0zm.865.738c.173.043.303.174.39.304.086.13.086.304.043.434s-.13.26-.26.304c-.13.087-.302.087-.475.043-.303-.087-.52-.434-.433-.738.044-.13.13-.26.26-.304.086-.043.173-.043.26-.043.086-.043.129 0 .215 0zM9.947 55.606l4.022 1.259h.13c.172 0 .345-.13.432-.304.086-.217-.043-.478-.303-.565l-4.022-1.258c-.216-.087-.476.043-.562.304-.087.26.043.52.303.564zM14.66 40.89l3.85 1.215c.215.087.475.087.691.087.952 0 1.816-.564 2.12-1.519.086-.217-.044-.477-.304-.564-.216-.087-.475.043-.562.303-.216.695-.994 1.042-1.73.825l-3.849-1.215c-.345-.13-.648-.347-.821-.651a1.334 1.334 0 0 1-.13-.999c.087-.217-.043-.477-.303-.564-.216-.087-.475.043-.562.304a2.128 2.128 0 0 0 .173 1.693c.39.52.865.911 1.427 1.085zM15.698 37.85l3.85 1.216c.215.087.475.087.691.087.346 0 .692-.087.995-.217a2.08 2.08 0 0 0 1.08-1.26c.087-.216-.042-.477-.302-.563-.216-.087-.476.043-.562.303a1.11 1.11 0 0 1-.649.738c-.346.174-.692.174-1.08.087l-3.85-1.215c-.735-.217-1.168-.955-.951-1.65.086-.217-.043-.477-.303-.564-.216-.087-.476.043-.562.304a2.416 2.416 0 0 0 1.643 2.734zM16.564 34.682l3.85 1.216c.215.087.475.087.691.087.952 0 1.817-.565 2.12-1.52.086-.217-.044-.477-.303-.564-.217-.087-.476.044-.563.304-.216.695-.994 1.042-1.73.825l-3.805-1.172c-.346-.13-.649-.347-.822-.651a1.334 1.334 0 0 1-.13-.999c.087-.217-.043-.477-.302-.564-.217-.087-.476.043-.563.304a2.128 2.128 0 0 0 .173 1.693c.346.477.822.868 1.384 1.041z"/><path d="m17.256 32.12 3.85 1.216c.215.087.475.087.691.087.952 0 1.817-.565 2.12-1.52.086-.217-.044-.477-.303-.564-.217-.087-.476.044-.563.304-.216.694-.994 1.042-1.73.825l-3.848-1.216c-.736-.217-1.168-.955-.952-1.65.087-.216-.043-.477-.303-.564-.216-.086-.475.044-.562.304-.26 1.172.39 2.431 1.6 2.779zM18.25 29.081l3.849 1.216c.216.087.476.087.692.087.951 0 1.816-.565 2.119-1.52.087-.217-.043-.477-.303-.564-.216-.087-.475.043-.562.304-.216.694-.995 1.042-1.73.825l-3.849-1.216c-.346-.13-.648-.347-.821-.65a1.334 1.334 0 0 1-.13-1c.086-.216-.043-.477-.303-.564-.216-.086-.476.044-.562.304a2.128 2.128 0 0 0 .173 1.693c.39.521.865.912 1.427 1.085zM27.203 100.705l-.26-.347-.043-.044-.216-.347-.173-.217-.951-1.302-.13-.174-.26-.347-.259-.348-.735-.998-1.081-1.52-1.687-2.387-.303-.434-.302-.434-1.773-2.474h-2.898c-.995 0-1.903.26-2.725.695-.13.086-.259.13-.389.217l-.389.26c-1.297 1.042-2.162 2.648-2.162 4.428v7.943H28.803l-1.47-2.04-.13-.13zM73.693 71.797H59.81v9.593h13.883v-9.593zM73.693 103.094H59.81v9.549h13.883v-9.549zM73.693 113.555H59.81v9.549h13.883v-9.549zM73.693 123.973H59.81v9.549h13.883v-9.549zM73.693 82.258H59.81v9.55h13.883v-9.55zM73.693 92.676H59.81v9.55h13.883v-9.55zM74.557 102.444v8.985l.346-.434 9.125-12.154v-8.985l-9.125 12.154-.346.434zM74.557 92.026v8.985l.346-.434 9.125-12.154v-8.986l-9.125 12.155-.346.434zM74.557 81.608v8.985l.346-.434 9.125-12.154v-8.986l-9.125 12.155-.346.434zM74.557 112.905v8.986l.346-.478 9.125-12.111v-9.029l-9.125 12.155-.346.477zM74.557 123.323v8.985l.346-.434 9.125-12.154v-8.986l-9.125 12.155-.346.434zM74.557 71.19v8.986l.346-.478 9.125-12.11v-9.03L74.73 70.93l-.173.26zM153.568 15.629l-.865-.782c.13-.65.173-1.345.13-2.04-.13-2.43-1.211-4.644-3.027-6.294a8.933 8.933 0 0 0-8.563-1.91l-.692-.52a1.255 1.255 0 0 0-1.816.13 1.315 1.315 0 0 0-.087 1.649c-.605.434-1.211.911-1.729 1.476-1.601 1.823-2.422 4.167-2.249 6.598.043.998.259 1.953.648 2.821a2.137 2.137 0 0 0-.562.174c-1.47.477-2.681 1.52-3.416 2.908l-2.249 4.428c-1.124-1.78-.562-4.124 1.643-6.989.389 0 .779-.087 1.168-.26 1.038-.608 1.427-1.954.822-2.995-.606-1.042-1.946-1.433-2.984-.825a2.277 2.277 0 0 0-1.038 2.474c-1.99 2.604-4.411 7.076-1.298 10.765l.39.39-.865 1.694c-1.946-.348-3.893-1.172-4.974-2.474-1.513-1.824-1.081-4.298 1.341-7.467a2.85 2.85 0 0 0 1.168-.26c1.037-.608 1.427-1.953.821-2.995-.605-1.042-1.946-1.433-2.984-.825-.865.521-1.254 1.52-1.038 2.474-1.989 2.605-4.411 7.076-1.297 10.765 1.384 1.65 3.589 2.692 5.881 3.213a5.878 5.878 0 0 0 .044 3.56c.475 1.475 1.513 2.69 2.897 3.428l1.125.565-2.292-.087-11.98-13.847-2.594 2.257c-1.082-.868-2.163-1.563-3.244-2.084l3.244-2.734c1.383-1.172 1.6-3.256.475-4.645l-9.86 8.117c.865 1.042 2.725 1.129 3.546 1.129 1.298.304 2.552.955 3.892 1.953l-2.378 2.084 20.542 23.744.173-.174c1.124 8.812 3.633 17.754 8.26 22.442l.303.304 2.421-2.388c.736 1.346 1.428 2.562 2.163 3.603l-4.065.217c-1.817.044-3.244 1.606-3.201 3.43l12.758-.434c-.043-1.39-1.47-2.561-2.162-3.082-1.081-1.216-2.292-3.213-3.546-5.6l2.205-2.17-.303-.304c-2.94-3.039-5.319-11.46-6.054-20.923l11.547-3.907-11.807-4.253c.303-.218.519-.565.519-.999 0-.52-.259-.955-.648-1.172a5.802 5.802 0 0 0 1.816-2.127l3.243-6.424 2.725 1.389.216-.39a8.894 8.894 0 0 0 .519-6.816 9.553 9.553 0 0 0-1.081-2.214c2.076-.347 3.979-1.345 5.363-2.951.519-.565.908-1.216 1.254-1.867l.043.043c.259.218.562.348.865.348.346 0 .735-.13.951-.434.39-.608.346-1.433-.173-1.91zm-8.13 9.246a8.295 8.295 0 0 1-.259 5.773l-1.947-.999-.389-.217-.389-.217-.865-.434-3.027-1.519-.562-.304-.217.39c-2.594.218-6.27-.563-8.087-2.387l2.422-4.774c.606-1.172 1.644-2.084 2.898-2.475a3.22 3.22 0 0 1 .692-.173 9.209 9.209 0 0 0 2.032 2.647c.865.738 1.817 1.346 2.854 1.737.995.39 2.076.564 3.157.564h.433c.043.087.13.13.173.217.216.304.432.651.605.998.173.304.303.608.39.955.043.087.043.13.086.218zm-7.482 50.917c-4.367-4.731-6.746-13.587-7.784-22.181 0-.174-.043-.348-.043-.521 0-.174-.043-.348-.043-.521 0-.13-.044-.304-.044-.434l.952-.304 1.081-.348.303-.086.778-.26 1.687-.565 2.508-.868c.778 9.246 3.07 17.537 6.011 20.922l-1.384 1.39-1.946 1.91-2.076 1.866zM109.89 30.735l1.816-1.607 1.989-1.736 1.86-1.606 10.855 12.545h-.39c-.692-.043-1.34.52-1.34 1.259-.043.564.346 1.085.821 1.259l.519 1.606 1.774 5.47 1.297 4.036c.043.39.086.738.13 1.129L109.89 30.735zm27.807 17.84-.433.13-2.421.825-.173.044-.908.303-1.082.348-.519.173-2.248.738-.13.044-.389-1.26-.563-1.692-.259-.781-.951-2.909-1.038-3.255 2.551.13.606.043.605.044.822.043 2.595.13 3.935.217 9.384 3.386-8.952 3.039-.432.26zm-1.254-9.81c-.173.087-.303.13-.476.174a5.297 5.297 0 0 1-2.465.173 4.852 4.852 0 0 1-1.341-.434l-.086-.043-.087-.044-2.811-1.432c-1.167-.608-2.075-1.65-2.465-2.908a4.834 4.834 0 0 1 0-3.126c.087-.217.173-.477.303-.694l.908-1.78.649-1.259c.605.521 1.341.955 2.076 1.302 1.167.565 2.508.912 3.805 1.129.822.13 1.644.217 2.466.217 1.513 0 2.897-.217 3.935-.651l1.341.695-3.33 6.38c-.563 1.042-1.384 1.824-2.422 2.301zm8.39-17.233c-.087 0-.173 0-.303.044h-1.125a9.21 9.21 0 0 1-2.465-.478 8.183 8.183 0 0 1-2.681-1.606 7.75 7.75 0 0 1-1.686-2.084 2.047 2.047 0 0 1-.217-.434 1.329 1.329 0 0 1-.173-.434c-1.211-2.865-.778-6.25 1.384-8.725a9.43 9.43 0 0 1 1.73-1.476l11.806 10.505a7.416 7.416 0 0 1-1.254 1.867c-1.297 1.65-3.07 2.56-5.016 2.821zm-2.855-16.191a7.94 7.94 0 0 1 1.773-.217c1.946 0 3.893.694 5.449 2.084 2.033 1.823 2.941 4.427 2.725 6.945l-9.947-8.812z"/><path d="M140.076 13.151c-.692.825-.649 2.04.173 2.778.086.087.173.13.303.13.129 0 .259-.043.302-.13.173-.173.13-.434-.043-.607a1.092 1.092 0 0 1-.086-1.52.986.986 0 0 1 .735-.347c.302 0 .562.087.778.26.173.174.433.13.606-.043s.129-.434-.044-.607a1.854 1.854 0 0 0-1.427-.478c-.476-.087-.951.174-1.297.564zM141.89 11.329c.087.087.173.13.303.13s.26-.043.303-.13c.173-.174.13-.434-.043-.608L139.296 7.9c-.173-.174-.433-.13-.606.043-.173.174-.13.434.043.608l3.157 2.778zM145.393 13.282c-.173-.173-.432-.13-.605.044-.173.173-.13.434.043.607l3.157 2.822c.087.087.173.13.303.13s.259-.043.303-.13c.173-.174.129-.434-.044-.608l-3.157-2.865zM138.69 10.158a.501.501 0 0 0-.043-.738.496.496 0 0 0-.735.043.5.5 0 0 0 .043.738.536.536 0 0 0 .735-.043zM144.097 15.235a.501.501 0 0 0 .043.738.497.497 0 0 0 .736-.043.5.5 0 0 0-.044-.738c-.216-.174-.562-.174-.735.043zM72.784 70.93l10.12-12.762H72.092L61.972 70.93h10.812zM96.44 82.477H85.455v7.51H96.44v-7.51zM96.44 57.34H85.455v7.51H96.44v-7.51zM96.44 74.098H85.455v7.51H96.44v-7.51zM96.44 65.719H85.455v7.51H96.44v-7.51zM96.44 40.543H85.454v7.553h10.984v-7.553zM96.44 48.965H85.455v7.51H96.44v-7.51zM97.305 81.909v6.945l.26-.39 7.178-9.507v-6.945l-7.179 9.506-.26.39zM97.305 48.358v6.945l.26-.347 7.178-9.55v-6.945l-7.179 9.55-.26.347zM97.305 39.979v6.945l.26-.347 7.178-9.55v-6.945l-7.222 9.593-.216.304zM97.305 56.733v6.945l.26-.347 7.178-9.55v-6.945l-7.179 9.55-.26.347zM97.305 65.112v6.945l.26-.347 7.178-9.55v-6.945l-7.179 9.55-.26.347zM97.305 73.534v6.945l.26-.39 7.178-9.55v-6.902l-7.179 9.506-.26.39zM95.748 39.676l8-10.07h-8.476l-8 10.07h8.476zM75.033 28.257l-6.746-8.421-16.088.13 6.79 8.421 16.044-.13zM58.297 29.172l.13-.087-7.698-9.55-.086.087-7.006 5.686 7.654 9.55 7.006-5.686zM59.119 29.82l-5.709 4.602 14.92-.348 5.709-4.644-14.92.39zM5.147 60.076l3.46 1.086c.734.217 1.47.347 2.205.347 3.114 0 6.054-2.04 7.006-5.166l.302-.955c.736 1.346.909 2.865.433 4.254-.087.217.043.478.303.565h.13c.172 0 .345-.13.432-.304a6.159 6.159 0 0 0-.562-4.992c-.13-.217-.26-.434-.39-.608l.173-.607.26.086c.13.044.303.087.432.087.217 0 .433-.043.606-.13.346-.174.562-.434.692-.781.216-.652-.173-1.39-.822-1.65l-.303-.217 1.946-6.294c.26.043.563.043.822.043.735 0 1.47-.173 2.12-.477 1.167-.521 2.032-1.476 2.378-2.648.086-.217-.043-.478-.303-.564-.216-.087-.476.043-.562.303a3.535 3.535 0 0 1-1.903 2.127c-.735.348-1.514.434-2.292.348l6.184-19.968c.606-1.866.39-3.863-.519-5.643-.908-1.78-2.422-3.038-4.325-3.646l-1.254-.347c1.99-1.52 3.114-3.82 3.114-6.338C24.91 3.559 21.32 0 16.953 0c-4.368 0-7.957 3.56-7.957 7.987 0 2.822 1.47 5.383 3.848 6.858a7.035 7.035 0 0 0-2.508 3.603L.346 50.831c-1.21 3.906.952 8.03 4.8 9.245zm12.627-6.598-.086-.086.087.043v.043zm8.78-34.77c.821 1.564.95 3.3.432 4.95l-.346 1.084c-1.99-.26-4.887-2.908-5.363-4.818 1.6-1.172 2.768-2.43 3.157-3.56.865.565 1.6 1.39 2.12 2.345zm-15.396 0c.476-1.475 1.427-2.734 2.768-3.559l.648-.434-.692-.347c-2.465-1.215-4.022-3.646-4.022-6.381 0-3.907 3.157-7.119 7.093-7.119 3.892 0 7.092 3.169 7.092 7.119a7.108 7.108 0 0 1-3.46 6.12l-.821.478 2.984.955c.302.087.605.217.908.347-.173.868-1.124 2.04-2.638 3.169-.087-.043-.13-.087-.26-.087-.259 0-.432.174-.432.434v.13c-.562.391-1.124.738-1.773 1.086-2.984 1.65-6.314 2.734-8.866 2.865l1.47-4.775zm-9.99 32.383 8.26-26.696c3.287-.087 7.87-1.823 11.114-3.95.606 1.823 2.681 3.907 4.67 4.775a.39.39 0 0 0-.259.26c-.216.695-.994 1.042-1.73.825l-3.848-1.215c-.346-.13-.65-.348-.822-.651a1.334 1.334 0 0 1-.13-.999c.087-.217-.043-.477-.302-.564-.217-.087-.476.043-.563.304a2.127 2.127 0 0 0 .173 1.693c.303.52.735.911 1.34 1.085l3.85 1.215c.216.087.476.087.692.087.951 0 1.816-.564 2.119-1.52.043-.086 0-.216-.043-.303.216.087.432.13.648.174l-5.622 18.144-2.249-.694c-.216-.087-.475.043-.562.303-.086.218.044.478.303.565l2.292.694-1.816 5.904-3.373-2.648c-.174-.13-.476-.13-.606.087-.13.173-.13.477.086.607l.174.13 3.46 2.692.734.564.173.13.087.044c.26.087.432.347.346.607a.444.444 0 0 1-.216.261c-.13.043-.26.087-.39.043l-.26-.086-.82-.26-3.547-1.13H14.315l-1.946-.607c-3.59-1.129-7.352.738-8.433 4.167-.087.217.043.477.302.564.217.087.476-.043.563-.304.908-2.951 4.238-4.6 7.351-3.602l2.466.78c1.167.348 2.162 1.043 2.94 1.998l-.519 1.65c-1.08 3.428-4.714 5.338-8.13 4.253l-3.46-1.085C1.99 58.167.087 54.52 1.168 51.09z"/></g><defs><clipPath id="a"><path fill="#fff" d="M0 0h154v134H0z"/></clipPath></defs></svg>