<svg width="183" height="132" fill="none" xmlns="http://www.w3.org/2000/svg"><path d="M94.49 36.793a3.441 3.441 0 0 1-1.562-.368c-.184.154-.367.276-.551.399a4.204 4.204 0 0 0 2.112.582c2.48 0 4.5-2.207 4.5-4.875h-.612c0 2.33-1.745 4.262-3.888 4.262z" fill="#000"/><path d="M94.487 36.18c-.367 0-.735-.061-1.072-.215a7.18 7.18 0 0 1-.49.46 3.44 3.44 0 0 0 1.562.368c2.143 0 3.887-1.931 3.887-4.262h-.612c0 1.993-1.47 3.649-3.275 3.649zM72.018 122.094c0 4.139-3.367 7.512-7.5 7.512-4.132 0-7.499-3.373-7.499-7.512 0-4.139 3.367-7.512 7.5-7.512h.061c.184-.399.367-.797.582-1.196-.215 0-.429-.031-.643-.031-4.806 0-8.724 3.925-8.724 8.739 0 4.814 3.918 8.738 8.724 8.738s8.724-3.924 8.724-8.738c0-3.587-2.173-6.684-5.296-8.033a18.4 18.4 0 0 0-.581 1.073c2.724 1.134 4.652 3.833 4.652 6.96zM104.437 108.999c5.938 0 10.775 4.845 10.775 10.793 0 5.948-4.837 10.793-10.775 10.793-5.939 0-10.775-4.845-10.775-10.793 0-3.005 1.224-5.734 3.214-7.696l-.092-1.594a12.005 12.005 0 0 0-4.347 9.259c0 6.623 5.388 12.02 12 12.02s11.999-5.397 11.999-12.02c0-6.622-5.387-12.019-11.999-12.019-1.102 0-2.204.153-3.214.429.03.399.061.828.122 1.258a11.08 11.08 0 0 1 3.092-.43zM94.456 100.875c-8.234.552-14.662 1.901-19.468 4.017-4.622 2.023-7.897 4.875-9.826 8.493.98.061 1.929.306 2.786.674 3.734-6.255 12.734-9.627 27.733-10.516-.061-.184-.123-.399-.184-.583-.306-.767-.643-1.472-1.04-2.085z" fill="#000"/><path d="M65.897 122.095c0-2.607.49-4.906 1.439-6.93a7.65 7.65 0 0 0-2.786-.552c-.949 2.239-1.439 4.722-1.439 7.512h2.786v-.03zM99.508 100.632c.092.245.214.521.306.766.214.644.428 1.288.612 1.962.857-.03 1.745-.03 2.663-.03v-2.76c-1.255 0-2.449.031-3.581.062z" fill="#000"/><path d="M64.582 114.61c.98 0 1.928.214 2.786.552.183-.368.367-.736.581-1.073a8.429 8.429 0 0 0-2.785-.675 10.9 10.9 0 0 0-.582 1.196zM103.059 100.569h1.377v2.76h-1.377v2.759h2.755v-17.17h-2.755v11.651z" fill="#000"/><path d="M104.436 100.57h-1.377v2.76h1.377v-2.76zM91.763 93.457a9.413 9.413 0 0 1-1.53 4.354c1.836.521 3.213 1.533 4.193 3.066 1.622-.123 3.275-.184 5.05-.245-1.53-3.68-4.07-6.071-7.713-7.175zM96.936 119.549v1.011c0 1.257 1.04 2.3 2.295 2.3a2.315 2.315 0 0 0 2.296-2.3v-1.011c0-3.619 0-7.022-.214-10.088a10.896 10.896 0 0 0-4.47 2.667c.093 2.331.093 4.845.093 7.421zM96.782 110.534a11.872 11.872 0 0 1 4.439-2.33c-.184-1.717-.429-3.342-.796-4.845-1.622.031-3.214.092-4.714.184.582 1.993.888 4.354 1.071 6.991z" fill="#000"/><path d="M96.844 112.128a10.694 10.694 0 0 1 4.469-2.668 17.24 17.24 0 0 0-.123-1.257 11.874 11.874 0 0 0-4.438 2.33c.061.522.092 1.043.092 1.595zM99.508 100.633c-1.745.061-3.429.122-5.051.245.398.613.735 1.319 1.01 2.085.061.184.123.399.184.583 1.5-.092 3.092-.154 4.714-.184a20.934 20.934 0 0 0-.612-1.963 7.377 7.377 0 0 0-.245-.766zM108.171 87.69h-5.265c-3.704 0-6.734-3.035-6.734-6.745h-1.225c0 4.385 3.582 7.972 7.959 7.972h.122v-.858h2.755v.858h2.357c3.245 0 6.031-1.962 7.286-4.752-.429 0-.857-.123-1.194-.338a6.67 6.67 0 0 1-6.061 3.864z" fill="#000"/><path d="M105.814 88.059h-2.755v.858h2.755v-.858zM79.672 49.121v-.153h-.215c-2.693 0-4.897-2.208-4.897-4.906a2.458 2.458 0 0 0-2.45-2.453 2.458 2.458 0 0 0-2.448 2.453c0 4.078 2.51 7.604 6.061 9.076a6.653 6.653 0 0 1 3.949-4.017zM92.651 49.241h-6.887a2.424 2.424 0 0 1 1.377 2.208v.061c.03.062.092.123.123.184.183-.03.336-.092.49-.153 2.479-1.104 5.356.03 6.458 2.484a2.428 2.428 0 0 0 2.235 1.471c.336 0 .673-.061.98-.214a2.476 2.476 0 0 0 1.254-3.25c-.796-1.779-2.05-3.25-3.673-4.262-.398.858-1.286 1.471-2.357 1.471z" fill="#000"/><path d="M87.142 51.48v-.061c0-.982-.55-1.81-1.377-2.208h-1.439a6.63 6.63 0 0 1 2.816 2.269zM72.294 94.62v-.398c0-.89.031-2.913-1.928-3.802-1.316-.583-2.816-.215-3.98.98-.52.553-.979 1.135-1.377 1.687-.367.49-1.04 1.38-1.316 1.472-.367-.276-.888-1.748-1.102-2.484l-.276-.828c-.918-2.544-2.57-3.127-3.49-3.25-.948-.122-1.928.154-2.876.767-1.317.889-2.143 2.115-2.847 3.22-.306.46-.582.888-.888 1.256-.46.552-1.102.859-1.347.859-.153-.184-.306-.828-.428-1.196-.337-1.165-.796-2.76-2.296-3.74-.765-.522-1.684-.767-2.847-.828-4.806-.154-9.152 3.77-9.49 8.585a2.298 2.298 0 0 0 2.144 2.453 2.297 2.297 0 0 0 2.448-2.147c.153-2.238 2.388-4.323 4.653-4.323h.123c.275 0 .398.03.428.061.123.184.306.798.429 1.166.306 1.103.734 2.575 2.081 3.618 2.45 1.87 5.816.643 7.683-1.656.46-.552.827-1.104 1.164-1.656.398-.582.734-1.134 1.102-1.533.06.184.122.337.183.521.674 2.024 1.776 5.366 5.143 5.611 2.296.154 3.765-1.318 4.806-2.636.428.889 1.132 1.625 2.05 2.177a6.07 6.07 0 0 0 3 .766 6.16 6.16 0 0 0 2.235-.43c-1.102-1.164-1.928-2.575-2.326-4.17-.429.123-.766 0-.858-.122zM113.006 68.343c-3.673-1.748-9.734-1.84-22.498-1.87a9.36 9.36 0 0 1 1.316 4.599c10.53 0 16.56.153 19.223 1.41 1.715.828 2.143 1.779 2.143 9.383 0 .828.429 1.563 1.102 1.962.429-.858.643-1.84.643-2.882h1.224a8.09 8.09 0 0 1-.673 3.22 2.315 2.315 0 0 0 2.296-2.3c-.031-6.807-.031-11.284-4.776-13.522z" fill="#000"/><path d="M114.905 80.945c0 1.043-.245 1.993-.643 2.883.336.214.765.337 1.194.337a8.09 8.09 0 0 0 .673-3.22h-1.224zM82.242 64.48c-3.704 0-6.734 3.036-6.734 6.746v21.586c.306-.552.612-1.165.888-1.81.52-1.165 1.897-1.655 3.06-1.134 1.164.521 1.653 1.901 1.133 3.066-.612 1.319-1.439 3.128-2.877 4.538 1.194 1.104 2.785 1.748 4.53 1.748h.061V64.48h-.06z" fill="#000"/><path d="M79.457 89.899a2.316 2.316 0 0 0-3.061 1.134c-.307.644-.582 1.258-.888 1.81a6.733 6.733 0 0 0 2.204 4.66c1.408-1.41 2.265-3.22 2.877-4.538.52-1.165.03-2.545-1.132-3.066zM84.08 95.05c0-1.257 1.041-2.3 2.296-2.3.919 0 1.776.062 2.602.154V71.073h-1.071a2.314 2.314 0 0 1-2.296-2.3c0-1.012.643-1.84 1.53-2.177a6.7 6.7 0 0 0-4.805-2.023v-.092 34.77a6.83 6.83 0 0 0 4.591-1.87h-.52c-1.285-.031-2.326-1.074-2.326-2.331z" fill="#000"/><path d="M88.978 92.907a23.288 23.288 0 0 0-2.602-.153 2.314 2.314 0 0 0-2.296 2.3c0 1.257 1.04 2.3 2.296 2.3h.52a6.758 6.758 0 0 0 2.082-4.447zM87.142 66.594a2.297 2.297 0 0 0-1.53 2.177c0 1.257 1.04 2.3 2.295 2.3h1.072a6.742 6.742 0 0 0-1.317-3.864c-.153-.215-.337-.399-.52-.613zM88.977 71.228v21.677h.092V71.074h-.062c-.03.061-.03.092-.03.154z" fill="#000"/><path d="M88.979 92.906c-.092 1.748-.888 3.312-2.051 4.477h.183c1.164-1.165 1.898-2.729 1.96-4.446-.031-.03-.062-.03-.092-.03zM88.978 71.07h.06c-.06-1.44-.55-2.79-1.407-3.863a6.557 6.557 0 0 1 1.347 3.863z" fill="#000"/><path d="M91.733 71.072h.061a9.36 9.36 0 0 0-1.316-4.6h-.03a9.336 9.336 0 0 1 1.285 4.6zM87.662 67.207c-.153-.215-.337-.399-.49-.613.153.214.337.398.49.613z" fill="#D0A571"/><path d="M84.693 53.872h-.03c0 .122.03.214.03.337 0 .368-.061.705-.123 1.042h3.827a6.293 6.293 0 0 0-1.102-3.587c-.062 0-.092.03-.153.03-.123 1.227-1.164 2.178-2.45 2.178zM82.61 61.722c.214-.03.398-.061.612-.092a3.231 3.231 0 0 1-2.265-3.005c-.245.03-.49.061-.734.061a4.478 4.478 0 0 1-4.47-4.476c0-.337.031-.675.123-1.012-.061-.03-.092-.03-.153-.061-.215.674-.367 1.38-.367 2.115 0 3.434 2.693 6.286 6.09 6.5.276-.03.521-.03.797-.03h.367zM79.182 53.875c-.03.092-.06.215-.06.337 0 .583.489 1.104 1.101 1.104s1.102-.49 1.102-1.104c0-.122-.03-.214-.061-.337h-2.082z" fill="#000"/><path d="M80.224 49.73a4.452 4.452 0 0 1 4.438 4.14h.03c1.256 0 2.297-.95 2.45-2.208a2.448 2.448 0 0 1-2.602-1.441 2.408 2.408 0 0 1-.215-1.012h-4.683v-.092a6.576 6.576 0 0 0-3.949 4.017c.062.03.092.03.153.061.49-1.962 2.266-3.465 4.378-3.465z" fill="#000"/><path d="M80.224 53.105c-.49 0-.887.338-1.04.767h2.081c-.153-.43-.582-.767-1.04-.767zM87.14 51.695c.062 0 .093 0 .154-.03-.03-.062-.092-.123-.123-.184-.03.06-.03.122-.03.214z" fill="#000"/><path d="M84.356 49.242c0 .338.06.675.214 1.012a2.448 2.448 0 0 0 2.602 1.441v-.215c-.735-.98-1.684-1.778-2.816-2.238zM81.876 61.784c.245 0 .52-.03.766-.061h-.368c-.275 0-.52 0-.796.03.123 0 .245.031.398.031zM83.223 61.632c.306.092.642.153.98.153h7.193c1.775 0 3.244-1.471 3.244-3.25 0-1.778-1.469-3.25-3.244-3.25h-3.03c0 3.097-2.205 5.703-5.143 6.347z" fill="#000"/><path d="M80.957 58.627c.03 1.41.98 2.606 2.265 3.005 2.939-.644 5.143-3.25 5.143-6.378h-3.827a4.462 4.462 0 0 1-3.581 3.373z" fill="#000"/><path d="M84.202 55.254h.337c.091-.338.122-.675.122-1.043 0-.123 0-.215-.03-.337h-3.398c.03.092.06.214.06.337 0 .583-.489 1.104-1.101 1.104s-1.102-.49-1.102-1.104c0-.123.03-.215.061-.337a9.928 9.928 0 0 1-3.306-.675c-.061.337-.122.644-.122 1.012 0 2.453 1.99 4.477 4.469 4.477.245 0 .49-.031.734-.062v-.092c.031-1.809 1.5-3.28 3.276-3.28z" fill="#000"/><path d="M80.224 53.107c.49 0 .887.337 1.04.767h3.398c-.184-2.3-2.081-4.14-4.438-4.14a4.464 4.464 0 0 0-4.347 3.465 9.928 9.928 0 0 0 3.306.675c.153-.43.55-.767 1.04-.767zM84.538 55.254h-.336c-1.776 0-3.245 1.472-3.245 3.25v.092a4.387 4.387 0 0 0 3.582-3.342zM76.397 45.47h1.224c0-7.236.306-12.633.796-16.618h-1.225c-.612 5.12-.795 11.099-.795 16.618zM82.793 17.383a4.917 4.917 0 0 1-.337-1.195c-2.693.551-4.224 5.243-5.081 11.436.398 0 .826 0 1.224-.03 1.164-8.586 3.215-10.057 4.194-10.21z" fill="#000"/><path d="M82.98 17.357c-.062 0-.123 0-.215.03.857 1.993 2.816 3.404 5.143 3.404.336 0 .673-.03 1.01-.092v-.46c0-.338.275-.613.612-.613.337 0 .612.275.612.613v.092a5.57 5.57 0 0 0 3.337-5.09V6.84a.594.594 0 0 0-.306-.521c-.184-.123-.429-.092-.613 0L87.938 9.17 83.285 6.32a.555.555 0 0 0-.612 0c-.183.122-.306.306-.306.52v8.371c0 .338.03.644.092.982.184-.031.367-.062.551-.062v1.227h-.03zm.612-9.413 4.01 2.483c.183.123.459.123.642 0l4.01-2.483v7.266c0 2.392-1.959 4.354-4.346 4.354a4.315 4.315 0 0 1-4.316-4.323V7.944z" fill="#000"/><path d="M82.979 17.352v-1.227c-.184 0-.368.03-.551.061.061.399.183.797.336 1.196.092 0 .154-.03.215-.03zM179.279 29.68c-.306.062-1.684.03-3.796-.061a.6.6 0 0 1-.52.276c-.245 0-.429-.123-.551-.337-1.317-.062-2.878-.154-4.561-.215-1.225-.061-2.602-.123-4.071-.215-.092.092-.245.123-.368.123a.602.602 0 0 1-.428-.184c-13.255-.644-35.57-1.594-66.027-1.594v1.226c34.529.03 58.588 1.227 70.802 1.84 9.489.49 9.795.46 10.163.092l.183-.49-1.224.06c.03-.306.275-.49.398-.52zM12.881 29.74a.603.603 0 0 1-.428.185.644.644 0 0 1-.398-.154l-1.96.092.062 1.227c24.886-1.288 47.293-1.963 67.006-2.238.061-.43.092-.828.153-1.227-19.009.276-40.559.89-64.435 2.116zM78.57 27.627c-.062.399-.123.797-.154 1.227 3.581-.031 7.102-.092 10.5-.092v-1.227c-3.368 0-6.796.03-10.347.092z" fill="#000"/><path d="M77.346 27.625c-.06.399-.122.828-.153 1.227h1.225c.061-.43.092-.828.153-1.227h-1.225zM92.038 23.238c.735 0 1.409.399 1.776 1.012a3.61 3.61 0 0 1 .337-.582 2.637 2.637 0 0 0-2.112-1.043c-.735 0-1.409.307-1.898.797v1.073c.336-.736 1.071-1.257 1.897-1.257z" fill="#000"/><path d="M90.57 27.503v-2.176a1.47 1.47 0 0 1 1.469-1.472c.826 0 1.469.674 1.469 1.472v2.176h.061v-2.176c0-.399.092-.767.245-1.104-.367-.583-1.04-1.012-1.775-1.012-.858 0-1.592.521-1.898 1.257v3.035h.428zM90.57 28.73h-.43v3.772h.43V28.73zM93.537 32.502h.061V28.73h-.06v3.772zM93.599 28.73v-1.226h-.062v1.226h.061zM90.57 27.504h-.43v1.226h.43v-1.226zM88.119 44.43c-.03-.062-.03-.123-.03-.184v-.43H79.7v1.227-.613h8.418zM89.283 44.43h3.398c1.133 0 2.082.95 2.082 2.085 0 .306-.062.613-.215.889.184.092.367.214.52.306a2.64 2.64 0 0 0 .276-1.195 2.7 2.7 0 0 0-2.694-2.699h-3.367v.43c.03.061 0 .122 0 .184zM81.874 48.752c.582 0 1.164.091 1.715.245h.796c0-.123.03-.245.06-.368h-4.744v-.613.98h.49a5.876 5.876 0 0 1 1.683-.245z" fill="#000"/><path d="M84.355 48.965h-.796c.245.061.49.153.734.245h.03c.032-.061.032-.153.032-.245zM80.162 48.965h-.49v.153c.153-.03.306-.092.49-.153zM92.65 48.63h-8.233c-.03.122-.061.245-.061.367h.336a2.5 2.5 0 0 1 1.072.246h6.887c1.04 0 1.959-.614 2.418-1.503a4.607 4.607 0 0 0-.52-.306c-.337.674-1.072 1.195-1.898 1.195z" fill="#000"/><path d="M85.765 49.241a2.499 2.499 0 0 0-1.072-.245h-.336c0 .092 0 .153-.03.245h1.438zM81.876 48.754c-.581 0-1.163.092-1.714.245h3.428a6.433 6.433 0 0 0-1.714-.245z" fill="#000"/><path d="M80.162 48.965a3.01 3.01 0 0 0-.49.153v.092h4.653a6.895 6.895 0 0 0-.735-.245h-3.428zM94.12 46.515c0 .214-.061.429-.123.613l.552.276c.122-.276.214-.583.214-.89 0-1.134-.95-2.084-2.082-2.084h-3.397c-.092.245-.307.429-.582.429-.276 0-.49-.184-.582-.43h-8.448v.614H92.65c.826 0 1.469.675 1.469 1.472zM84.416 48.629c.062-.215.154-.43.276-.613h-5.02v.613h4.745z" fill="#000"/><path d="m94.548 47.401-.55-.276a1.454 1.454 0 0 1-1.348.858h-7.959a2.216 2.216 0 0 0-.275.614h8.234c.827.03 1.561-.49 1.898-1.196zM96.294 23.238c1.132 0 2.081.95 2.081 2.085V27.5h.612v-2.177a2.7 2.7 0 0 0-2.693-2.698c-.857 0-1.623.399-2.112 1.043.153.184.245.367.336.582a2.044 2.044 0 0 1 1.776-1.012zM98.375 32.502h.612V28.73h-.612v3.772zM98.375 27.504v1.226h.612v-1.226h-.612zM94.15 32.502h.062V28.73h-.062v3.772z" fill="#000"/><path d="M94.15 25.327v2.177h.061v-2.177c0-.399.123-.767.306-1.104-.092-.214-.214-.398-.337-.582a2.22 2.22 0 0 0-.336.582c.183.338.306.705.306 1.104zM94.212 28.73v-1.226h-.062v1.226h.062zM94.15 32.502V28.73h-.55v3.772h.55z" fill="#000"/><path d="M93.6 27.503h.55v-2.177c0-.398-.122-.766-.306-1.103a2.648 2.648 0 0 0-.244 1.104v2.176zM93.6 28.73h.55v-1.226h-.55v1.226zM94.825 32.502V28.73h-.061v3.772h.061zM97.762 32.502h.612V28.73h-.612v3.772zM96.293 23.242c-.735 0-1.408.399-1.775 1.012.153.337.245.705.245 1.104v2.177h.06v-2.177a1.47 1.47 0 0 1 1.47-1.472c.826 0 1.47.675 1.47 1.472v2.177h.611v-2.177c0-1.165-.948-2.116-2.081-2.116z" fill="#000"/><path d="M94.825 28.73v-1.226h-.061v1.226h.061zM97.762 28.73h.612v-1.226h-.612v1.226zM94.762 32.502V28.73h-.551v3.772h.55zM94.762 25.326c0-.398-.092-.766-.245-1.103a2.207 2.207 0 0 0-.306 1.104v2.176h.55v-2.177zM94.762 28.73v-1.226h-.551v1.226h.55zM13.064 29.284c0-4.048.306-6.715.674-8.494a2.99 2.99 0 0 1-.551-.52l-.306-.43-.184.122c-.582 2.177-.857 5.305-.857 9.352a.6.6 0 0 0 .214.46c.276 0 .551-.03.827-.03a.625.625 0 0 0 .183-.46z" fill="#000"/><path d="M12.881 29.742c-.275 0-.55.03-.826.03a.581.581 0 0 0 .398.154c.183-.03.336-.092.428-.184zM15.819 16.127c.337 0 .612.276.612.613a.614.614 0 0 1-.612.613c-.306 0-1.347.246-2.082 3.434a2.525 2.525 0 0 0 2.97-.06c.153-.123.275-.246.398-.369h-.674a.614.614 0 0 1-.612-.613c0-.337.275-.613.612-.613.367 0 .796 0 1.224-.03a2.644 2.644 0 0 0-.49-1.933l-4.162-5.488c-.46.061-.95.092-1.47.092a.614.614 0 0 1-.612-.613c0-.338.276-.613.612-.613.215 0 .398 0 .582-.031l-.398-.552c-.857-1.104-2.449-1.318-3.55-.46a2.548 2.548 0 0 0-.98 2.208c.643.122 1.377.184 2.204.184.336 0 .612.276.612.613a.614.614 0 0 1-.612.613c-.612 0-1.163-.03-1.714-.092v.03l4.407 5.765 1.225-.766c.673-1.258 1.5-1.932 2.51-1.932z" fill="#000"/><path d="M15.818 17.352a.615.615 0 0 0 .612-.614.615.615 0 0 0-.612-.613c-1.01 0-1.837.644-2.45 1.962l.031-.03c.276-.184.674-.092.857.184.184.276.092.674-.183.858l-1.194.736.337.43c.153.214.336.398.55.52.705-3.188 1.776-3.433 2.052-3.433zM25.613 13.34a.614.614 0 0 0-.612-.613.614.614 0 0 0-.612.613c0 4.415-3.765 5.55-6.704 5.795-.061.46-.275.889-.581 1.257 5.418-.215 8.51-2.76 8.51-7.052z" fill="#000"/><path d="M15.85 19.777c0 .337.275.613.612.613h.673c.306-.368.49-.797.582-1.257-.429.03-.857.03-1.225.03-.367 0-.642.276-.642.614zM3.116 7.357a.606.606 0 0 0-.368-.552c-.122.03-.275.03-.398.03h-.122a.594.594 0 0 0-.306.522c0 3.25 2.081 5.273 5.785 5.733a2.41 2.41 0 0 1-.49-1.318c-3.336-.613-4.101-2.668-4.101-4.415z" fill="#000"/><path d="M10.004 12.57a.615.615 0 0 0-.613-.613c-.826 0-1.56-.06-2.204-.184.031.46.215.92.49 1.319.52.061 1.102.092 1.714.092a.615.615 0 0 0 .613-.613zM18.422 5.213c0-.184-.092-.337-.184-.46-.122.031-.245.031-.367.031-.153 0-.306-.03-.429-.061a.652.652 0 0 0-.214.46c0 3.311-1.745 5.15-5.082 5.335l.888 1.134c3.429-.46 5.388-2.76 5.388-6.439zM10.92 11.195c0 .337.275.613.612.613.52 0 1.01-.03 1.47-.092l-.888-1.165c-.184 0-.398.03-.582.03a.615.615 0 0 0-.612.614zM7.555 6.59l.704.92 1.01-1.533-1.714.613z" fill="#000"/><path d="M7.798 8.953a.639.639 0 0 0 .49.246h.03c.184 0 .368-.123.49-.276l2.51-3.802a.598.598 0 0 0-.03-.706c-.153-.184-.429-.276-.674-.184L6.39 5.764c-.184.062-.337.215-.367.4a.595.595 0 0 0 .092.551l1.683 2.238zm3-4.17-2.51 3.802-1.714-2.269 4.224-1.533z" fill="#000"/><path d="M10.799 4.785 6.574 6.318l1.714 2.27 2.51-3.803zm-3.245 1.81 1.714-.614-1.01 1.533-.704-.92zM11.993 4.047a2.02 2.02 0 0 0 2.02-2.023A2.04 2.04 0 0 0 11.994 0a2.04 2.04 0 0 0-2.02 2.024 2.04 2.04 0 0 0 2.02 2.023zM18.237 4.751a2.036 2.036 0 0 0 1.653-1.993A2.02 2.02 0 0 0 17.87.734a2.04 2.04 0 0 0-2.02 2.024c0 .981.673 1.778 1.591 1.993a.644.644 0 0 1 .398-.153.72.72 0 0 1 .398.153z" fill="#000"/><path d="M18.237 4.751a.663.663 0 0 0-.429-.153.581.581 0 0 0-.398.153c.153.03.276.061.429.061.153-.03.275-.03.398-.061zM2.748 6.778a2.039 2.039 0 0 0 1.623-1.993 2.02 2.02 0 0 0-2.02-2.023A2.04 2.04 0 0 0 .33 4.785c0 1.074.826 1.963 1.897 2.024a.517.517 0 0 1 .306-.092c.061.03.153.03.214.061z" fill="#000"/><path d="M2.748 6.776a.576.576 0 0 0-.245-.061.516.516 0 0 0-.306.092h.123c.153.03.306 0 .428-.03zM24.82 12.633c1.115 0 2.02-.906 2.02-2.023a2.022 2.022 0 0 0-2.02-2.024c-1.117 0-2.021.906-2.021 2.024 0 1.117.904 2.023 2.02 2.023zM12.115 18.855l-1.133.705c-.55.338-1.04.46-1.194.307-.091-.092-.091-.338-.122-.613 0-.215-.03-.491-.092-.736-.03-.092-.092-.368-.367-.552a.921.921 0 0 0-.643-.154c-1.163.092-1.745 1.166-2.204 1.963l-.03.061c-.337.583-.858 1.104-1.256.95-.306-.122-.459-.613-.642-1.073-.368-1.011-.919-1.594-1.653-1.655-.49-.061-1.01.153-1.5.582-.582.522-1.01 1.227-1.255 1.993-.092.338.092.675.398.767.336.092.673-.092.765-.399.153-.552.49-1.042.888-1.41.214-.184.428-.307.55-.276.215.03.43.337.643.858.215.614.52 1.442 1.347 1.779.184.061.398.122.582.122.796 0 1.592-.582 2.173-1.594l.03-.061c.276-.521.613-1.073 1.011-1.257v.214c.03.43.03.95.429 1.38.581.674 1.591.644 2.755-.092l1.07-.675c.031-.091.031-.153.062-.245l-.612-.889zM12.759 19.715c-.031.092-.031.153-.062.245l.185-.123-.123-.122zM13.37 18.09l-1.223.766.642.828a9.654 9.654 0 0 1 .582-1.594z" fill="#000"/><path d="M14.227 18.272a.628.628 0 0 0-.857-.184l-.03.03a9.08 9.08 0 0 0-.582 1.626l.092.122 1.163-.736c.306-.214.398-.582.214-.858zM172.666 12.815c1.041-2.054 1.561-5.825 1.561-11.253a.614.614 0 0 0-.612-.613.614.614 0 0 0-.612.613c0 5.274-.49 8.218-1.071 9.843.214.245.398.521.52.828l.214.582zM172.298 22.689a.614.614 0 0 1-.612.613h-.214a2.562 2.562 0 0 0 2.571.705c-.214-1.257-.459-1.594-.52-1.656a.626.626 0 0 1-.551-.613c0-.337.275-.613.612-.613.581 0 1.194.337 1.561 2.177.643-.675.857-1.717.52-2.637l-3-7.85c-.612 1.258-1.438 1.902-2.418 1.902a.615.615 0 0 1-.612-.614c0-.337.276-.613.612-.613.245 0 1.01-.153 1.684-2.085a2.482 2.482 0 0 0-2.755-.613 2.526 2.526 0 0 0-1.439 3.28l3.092 8.065c.275-.031.581-.031.888-.031.336-.03.581.245.581.583z" fill="#000"/><path d="M170.218 13.491a.615.615 0 0 0-.613.614c0 .337.276.613.613.613 1.01 0 1.806-.644 2.418-1.901l-.214-.583a2.907 2.907 0 0 0-.521-.828c-.643 1.901-1.438 2.085-1.683 2.085zM158.218 21.157a.615.615 0 0 0 .612-.613c0-5.059 4.959-5.825 7.928-5.825a.614.614 0 0 0 0-1.227c-5.816 0-9.153 2.576-9.153 7.052 0 .338.276.613.613.613zM166.023 28.67c0-3.433 1.867-5.273 5.449-5.365a2.396 2.396 0 0 1-.52-.797l-.153-.399c-3.827.307-6 2.668-6 6.562 0 .184.061.337.184.43.275 0 .55.03.795.03a.54.54 0 0 0 .245-.46zM165.81 29.16c-.276 0-.521-.031-.796-.031.122.092.245.184.428.184.123-.03.245-.092.368-.153z" fill="#000"/><path d="M171.472 23.305h.215a.615.615 0 0 0 .612-.614.615.615 0 0 0-.612-.613c-.307 0-.582 0-.888.03l.153.4c.122.306.306.582.52.797zM177.779 21.77l-.031 1.134 1.745-.552-1.714-.582z" fill="#000"/><path d="m181.635 21.8-4.255-1.441a.592.592 0 0 0-.551.092.8.8 0 0 0-.276.49l-.061 2.852c0 .184.092.399.245.521.092.092.245.123.367.123.062 0 .123 0 .184-.03l4.316-1.411c.245-.092.429-.307.429-.583 0-.276-.153-.552-.398-.613zm-4.531 1.962.062-2.851 4.254 1.44-4.316 1.411z" fill="#000"/><path d="m177.104 23.762 4.316-1.41-4.255-1.442-.061 2.852zm.673-1.993 1.714.582-1.745.552.031-1.134zM174.229 23.945c-.062.03-.123.03-.184.061.153 1.012.306 2.668.306 5.274 0 .092.031.184.061.276.368.03.735.03 1.072.061a.62.62 0 0 0 .091-.337c0-2.882-.153-4.753-.428-5.98a2.49 2.49 0 0 1-.918.645z" fill="#000"/><path d="M174.963 29.896c.214 0 .398-.123.52-.276-.336 0-.704-.03-1.071-.061a.646.646 0 0 0 .551.337zM173.585 21.125a.614.614 0 0 0-.612.613c0 .307.245.583.551.614.061.06.306.429.52 1.655.061-.03.122-.03.184-.061.367-.154.673-.368.949-.644-.398-1.84-.98-2.177-1.592-2.177zM88.67 43.815h.613c-.214-4.783-4.194-8.616-9.03-8.616a.615.615 0 0 0-.612.613c0 .338.275.614.612.614.214 0 .428 0 .643.03l-.643-.644a8.42 8.42 0 0 1 8.418 8.003zM88.059 43.602c0 .06 0 .153.03.214h.184l-.214-.214zM88.12 44.43h1.164c.03-.062.03-.123.03-.184v-.43h-.612v.43l-.428-.43h-.184v.43c0 .061 0 .122.03.184z" fill="#000"/><path d="M88.703 44.859c.275 0 .49-.184.581-.43h-1.163c.061.246.306.43.582.43zM88.672 43.815a8.42 8.42 0 0 0-8.418-8.002l.643.643c3.795.307 6.826 3.342 7.132 7.144l.214.215h.429zM88.702 44.246v-.43h-.429l.429.43zM88.916 27.534h.429v-2.208c0-.736.306-1.41.795-1.901v-3.097a4.34 4.34 0 0 1-1.224.368v6.838zM88.916 41.423c0 .337.276.613.612.613a.614.614 0 0 0 .612-.613v-4.017c-.428 0-.826-.092-1.224-.215v4.232zM89.345 28.762h-.429v3.771h.429v-3.771z" fill="#000"/><path d="M89.528 19.621a.614.614 0 0 0-.612.613v.46a8.068 8.068 0 0 0 1.224-.368v-.092a.614.614 0 0 0-.612-.613zM89.345 27.535h-.429v1.227h.429v-1.227zM89.344 25.327v2.207h.612v-2.176c0-.307.061-.583.184-.828v-1.104a2.693 2.693 0 0 0-.796 1.9zM89.956 28.762h-.612v3.771h.612v-3.771z" fill="#000"/><path d="M89.956 27.504h-.612v1.226h.612v-1.226zM89.957 28.761v3.772h.184V28.76a.196.196 0 0 0-.184 0zM90.141 24.5a1.919 1.919 0 0 0-.184.828v2.177h.184V24.5z" fill="#000"/><path d="M90.141 28.73v-1.226h-.184v1.226h.184zM90.263 36.794h-.122v.613h.122c.765 0 1.5-.215 2.112-.583-.183-.122-.398-.245-.55-.398-.49.214-1.011.368-1.562.368zM86.376 32.5h-.612c0 2.177 1.316 4.047 3.153 4.66v-.674c-1.47-.583-2.541-2.146-2.541-3.986zM94.763 32.5h-.612c0 1.257-.49 2.36-1.286 3.158.184.123.368.215.582.307a5.212 5.212 0 0 0 1.316-3.465z" fill="#000"/><path d="M92.375 36.09a5.306 5.306 0 0 1-.55.337c.183.153.367.276.55.399.184-.123.398-.246.551-.399a5.316 5.316 0 0 1-.55-.337zM92.867 35.66a3.095 3.095 0 0 1-.49.399c.184.122.367.245.55.337.185-.153.338-.276.49-.46a2.319 2.319 0 0 1-.55-.276zM88.916 36.52v.674c.398.123.796.215 1.224.215v-.614a4.181 4.181 0 0 1-1.224-.276zM90.263 36.18h-.122v.613h.122a3.44 3.44 0 0 0 1.561-.368c-.183-.153-.337-.276-.49-.46a3.174 3.174 0 0 1-1.07.214zM88.916 36.517v-.675c-1.133-.582-1.929-1.84-1.929-3.342h-.612c0 1.84 1.071 3.403 2.54 4.017zM93.6 32.5h-.061a3.99 3.99 0 0 1-1.133 2.79c.153.154.306.276.49.368a4.424 4.424 0 0 0 1.286-3.158H93.6z" fill="#000"/><path d="M91.916 35.66a3.493 3.493 0 0 1-.582.307c.153.153.306.306.49.46.183-.092.398-.215.55-.338a3.047 3.047 0 0 1-.458-.429z" fill="#000"/><path d="M92.864 35.66c-.183-.122-.336-.244-.49-.367a1.868 1.868 0 0 1-.49.368c.154.153.307.276.49.398.184-.091.337-.245.49-.398zM88.916 35.844v.674c.398.154.796.246 1.224.276v-.613a3.308 3.308 0 0 1-1.224-.337z" fill="#000"/></svg>