<svg width="246" height="91" fill="none" xmlns="http://www.w3.org/2000/svg"><g clip-path="url(#a)" fill="#000"><path d="M62.842 5.567c.507 0 1.114.405 1.62 1.164L74.44 21.46c.202-.05.405-.05.658-.05h.253c1.215-.709 2.785-.557 3.798.405a1.202 1.202 0 0 1 1.013-.355c.354 0 .709.203.962.456s.405.658.354 1.012a1.71 1.71 0 0 1-.456.962l.71.759c.253.303.506.658.607 1.012.101-.202.152-.354.253-.557.152-.253.304-.506.456-.81L69.02 3.544c-1.57-2.278-3.798-3.594-6.228-3.594-2.43 0-4.659 1.316-6.229 3.594L.456 86.647c-.86 1.265-.506 2.986.76 3.847 1.266.86 2.987.506 3.848-.76L61.222 6.731c.506-.759 1.114-1.164 1.62-1.164zM94.998 42.007l-.102-.151-.05.05.152.101zM87.605 31.532c.1 0 .202 0 .303-.05l-.607-.912c0 .203-.051.405-.051.658l.355.304zM120.823 86.646l2.178-3.239-11.242-16.6-13.42-9.92 22.231 32.897A2.773 2.773 0 0 0 122.899 91h.152a2.638 2.638 0 0 1-1.468-.455 2.824 2.824 0 0 1-.76-3.898zM135.204 66.706l-2.684 3.695c.051.202 0 .405-.101.607l-5.115 7.086c-.101.152-.303.253-.506.304h-.101c-.102 0-.152 0-.253-.051l-3.393 5.061 1.671 2.48 30.281-44.842a2.796 2.796 0 0 1 .912-3.543 2.833 2.833 0 0 1 1.772-.455l21.572-31.886c2.178-3.188 5.672-3.188 7.849 0l21.774 32.24c.102.05.152.101.254.152.709.456 1.114 1.215 1.215 2.024l32.915 48.689h-3.342l1.063 1.569a2.773 2.773 0 0 0 2.329 1.215c.557 0 1.064-.152 1.57-.456 1.266-.86 1.621-2.581.76-3.846L189.387 3.593C187.868 1.316 185.589 0 183.209 0s-4.659 1.316-6.229 3.593l-41.928 62.05c.304.254.405.71.152 1.063zM124.469 90.543c-.456.304-.912.456-1.418.456.911.05 1.873-.405 2.43-1.215l1.064-1.57h-.81a3.107 3.107 0 0 1-1.266 2.329z"/><path d="M125.685 88.218h-2.532l1.57-2.328-1.671-2.48-2.178 3.24c-.861 1.265-.506 2.985.76 3.846.455.303.962.455 1.468.455.507 0 .962-.151 1.418-.455a2.827 2.827 0 0 0 1.165-2.278zM210.35 39.578c.051.658-.051 1.316-.456 1.873l-.81 1.214 30.788 45.602h3.342L210.35 39.578zM159.764 38.312l.253.354L181.589 6.73c.506-.76 1.063-1.164 1.62-1.164.557 0 1.114.405 1.621 1.164l20.964 31.025c.861-.76 2.076-.911 3.139-.354L187.159 5.16c-2.177-3.189-5.671-3.189-7.849 0l-21.572 31.936c.76.05 1.519.506 2.026 1.215z"/><path d="m155.156 41.452-.152-.304-30.281 44.842.506.76a2.84 2.84 0 0 1 .456 1.569h.81l30.13-44.59-1.469-2.277z"/><path d="M125.684 88.215c0-.557-.152-1.063-.455-1.57l-.507-.758-1.57 2.328h2.532zM205.286 38.312l-10.077 14.88-10.836-14.981a2.832 2.832 0 0 0-2.279-1.164c-.911 0-1.772.455-2.279 1.215l-10.026 14.88-9.773-14.476-3.342 4.96 10.026 14.83c.76 1.113 1.874 1.72 3.089 1.72 1.215 0 2.38-.607 3.089-1.72l9.317-13.767 9.976 13.817c.76 1.063 1.874 1.67 3.089 1.67 1.215 0 2.38-.607 3.089-1.72l10.685-15.842-3.292-4.859a5.382 5.382 0 0 0-.456.557zM155.915 37.555a2.795 2.795 0 0 0-.911 3.543l2.684-3.999a2.834 2.834 0 0 0-1.773.456zM209.136 37.554c-.101-.05-.152-.101-.253-.152l1.468 2.126c-.101-.76-.506-1.468-1.215-1.974zM205.793 37.758l3.291 4.858.811-1.214c.405-.557.506-1.215.455-1.873l-1.468-2.126a2.862 2.862 0 0 0-3.089.355z"/><path d="m156.624 43.627 3.342-4.96-.253-.355c-.506-.708-1.266-1.113-2.076-1.214l-2.684 3.998.152.304 1.519 2.227zM88.567 31.329c-.254.05-.456.101-.659.152l.405.607.05.05c.153-.05.254-.05.406-.1a9.325 9.325 0 0 0 4.152-2.48 2.389 2.389 0 0 1-.76-.304c-.961.961-2.177 1.67-3.594 2.075zM94.49 21.863l1.114-1.215c-.456.304-.86.709-1.114 1.215zM97.58 31.885c-1.215 1.67-2.886 2.986-4.76 3.999l.608.506c1.874-1.012 3.494-2.379 4.76-4.05 1.975-2.63 2.886-5.92 2.532-9.008l-.709.76c.101 2.732-.76 5.516-2.43 7.793zM87.907 31.48c-.1 0-.202.051-.303.051l.708.607-.405-.657z"/><path d="M96.973 31.428c-1.216 1.62-2.887 2.986-4.81 3.897l.607.507c1.873-.962 3.544-2.328 4.76-3.999 1.721-2.277 2.582-5.06 2.43-7.794l-.76.81c0 2.379-.81 4.656-2.227 6.58zM88.768 32.039c-.151.05-.253.05-.405.1l.71.608c1.924-.557 3.595-1.67 4.76-3.087h-.203c-.254 0-.507-.05-.76-.101-1.013 1.164-2.43 2.024-4.102 2.48zM124.468 76.018c.102 0 .203 0 .304-.051-.05-.304-.101-.658-.05-.962l-.203.253-13.976-10.324 1.266 1.872 12.254 9.06a.577.577 0 0 0 .405.152zM88.92 48.941l-.506.608 9.925 7.339-1.266-1.924-8.153-6.023zM128.926 68.022l.455-.607-34.383-25.407 1.266 1.872 32.662 24.142zM110.493 64.935l-13.419-9.97 1.266 1.923 13.419 9.92-1.266-1.873zM94.389 42.463l1.873 1.417-1.266-1.873-.152-.1-.455.556z"/><path d="M124.671 75.007c.051-.456.152-.86.456-1.215l1.418-1.974-.152-.1-2.076 2.53-15.141-11.186 1.266 1.873 13.976 10.325.253-.253zM89.376 48.387l-.456.556 8.153 6.023-1.266-1.872-6.431-4.707zM128.52 68.628l.405-.607-32.661-24.142 1.266 1.873 30.99 22.876zM127.406 70.605l.101-.152V70.3l-.202.202.101.102z"/><path d="m95.807 53.09 1.266 1.872 13.419 9.971-1.266-1.873-13.42-9.97zM97.529 45.755l-1.266-1.873-1.874-1.417-.506.607 3.646 2.683zM92.516 24.04l-.911 1.012c-1.064 1.114-.963 2.885.152 3.948.1.1.253.202.405.303.253-.253.506-.506.709-.81 1.012-1.315 1.468-3.036 1.266-4.554-.102-.709.05-1.418.354-2.025l-1.013 1.113a4.506 4.506 0 0 1-.962 1.013zM100.668 22.928c0 .152.051.253.051.405l2.532-2.783a3.352 3.352 0 0 0 .81-3.037c-.203-.86-.76-1.569-1.519-2.025L94.744 9.01c-1.165-.961-2.937-.81-3.9.354-.962 1.164-.81 2.936.355 3.898l6.33 5.213-1.924 2.075c.405-.253.86-.456 1.316-.506 1.823-.152 3.494 1.113 3.747 2.884z"/><path d="M99.25 24.902c0-.608 0-1.165-.101-1.772-.152-.961-1.013-1.62-2.025-1.518-.963.152-1.62 1.063-1.52 2.024.254 1.924-.303 4.05-1.519 5.669-.101.101-.152.202-.253.303a2.936 2.936 0 0 0 1.874-.86l3.544-3.846z"/><path d="M94.137 23.887c.203 1.518-.253 3.239-1.266 4.555-.203.304-.456.557-.709.81.253.152.506.253.76.303.202-.202.405-.455.557-.657 1.114-1.519 1.62-3.392 1.367-5.112-.203-1.367.76-2.683 2.127-2.885 1.367-.203 2.683.759 2.886 2.125.05.355.101.71.101 1.063l.709-.759c0-.152-.05-.253-.05-.405-.254-1.771-1.925-3.036-3.748-2.783-.506.05-.962.253-1.316.506l-1.114 1.214c-.253.608-.405 1.266-.304 2.025z"/><path d="M93.832 29.658c.1-.101.202-.203.253-.304 1.215-1.67 1.823-3.796 1.519-5.668-.152-.962.557-1.873 1.519-2.025.962-.152 1.874.557 2.026 1.519.1.607.1 1.164.1 1.771l.76-.81c0-.354-.05-.708-.1-1.063a2.53 2.53 0 0 0-2.887-2.125 2.53 2.53 0 0 0-2.127 2.885c.253 1.72-.253 3.644-1.367 5.111-.152.253-.355.456-.557.658.253.05.506.102.76.102 0-.051.05-.051.1-.051zM86.338 50.865l-7.14-12.4a2.9 2.9 0 0 1-.557.557l6.988 12.197c.101.203.354.354.607.354h.051c.203 0 .456-.1.557-.253l1.52-1.771-.609-.456-1.417 1.772zM94.288 38.111c.861.76 1.013 2.075.254 2.936l-.102.101.456.658.253-.304a2.82 2.82 0 0 0-.354-3.998l-1.367-1.164a4.627 4.627 0 0 1-.71.354l1.57 1.417zM87.25 31.53h.404l-.405-.303c-.05.05 0 .202 0 .303zM94.238 41.452l.608.456.05-.05-.455-.659-.203.253zM88.818 32.847l1.064 1.57 1.519 1.265c.253-.102.506-.203.76-.355l-3.09-2.58c-.05 0-.05 0-.1.05 0 0-.102 0-.153.05z"/><path d="m89.882 34.417-1.064-1.57c-.151.051-.405.102-.658.152l1.722 1.418zM92.06 36.237l.659.557c.253-.101.506-.253.709-.354l-.608-.506c-.253.05-.506.202-.76.303zM88.363 32.136l-.05-.05.05.05c0 .051 0 .051 0 0z"/><path d="M87.25 31.531c0 .253 0 .456.05.709l.102.05c.304 0 .658-.05 1.013-.1l-.051-.051-.709-.608h-.405zM91.402 35.683l.659.556c.253-.1.506-.253.76-.354l-.608-.506c-.304.101-.557.202-.81.304z"/><path d="M88.819 32.845c.05 0 .152-.05.203-.05.05 0 .05 0 .1-.05l-.708-.608h-.05l.455.708z"/><path d="m88.82 32.846-.456-.658c-.354.1-.709.1-1.012.1l.81.71c.253-.051.506-.102.658-.152zM90.744 45.602 88.77 47.93l.608.455 1.773-2.125-.406-.658z"/><path d="m91.15 46.257 2.734-3.188-.608-.456-2.532 2.986.405.658zM88.313 48.484l-.506.608.607.455.507-.607-.608-.456zM94.389 42.462l.456-.557-.608-.456-.506.557.658.456z"/><path d="m88.768 47.93-.456.556.608.456.456-.557-.608-.455zM93.275 42.615l.608.456.506-.608-.658-.455-.456.607zM80.109 29.91c-.05 0-.102.05-.203.05v1.165l.557-.658-.354-.557zM93.833 38.716c.557.456.607 1.265.202 1.822l.456.658.101-.101c.76-.86.608-2.176-.253-2.935l-1.62-1.367c-.254.101-.507.202-.76.354l1.874 1.57zM86.439 49.55l-6.786-11.843a3.022 3.022 0 0 1-.456.76l7.14 12.4 1.469-1.772-.608-.456-.76.911z"/><path d="M81.072 29.508a2.616 2.616 0 0 1-.963.405l.355.556.557-.708c.05-.101.05-.203.05-.253zM93.985 40.589l-.354.405.608.455.202-.253-.456-.607c0-.05 0-.05 0 0zM90.896 35.882c.151-.05.354-.152.506-.203l-1.52-1.265 1.014 1.468zM88.162 33c-.253.05-.507.05-.76.05.051.153.102.304.152.406l2.988 2.53c.101-.05.203-.05.304-.101l-1.013-1.468L88.162 33zM91.402 36.694l.506.404c.254-.1.507-.202.76-.354l-.658-.556c-.254.1-.507.202-.71.303l.102.203zM87.351 32.289l-.101-.05v.05h.101zM91.402 36.695l-.101-.152h-.051l.152.152z"/><path d="m90.894 35.882.456.658c.254-.101.507-.202.71-.304l-.66-.556c-.151.1-.354.151-.506.202zM87.3 32.29v.15c.051.203.102.406.102.608.253 0 .506-.05.76-.05l-.81-.709H87.3zM91.25 36.54h.05l-.455-.657c-.101.05-.203.05-.304.101l.709.557zM90.287 44.941l-2.127 2.531.608.456 1.975-2.329-.456-.658z"/><path d="m90.287 44.944.456.658 2.532-2.986-.608-.456-2.38 2.784zM87.2 48.639l.607.455.506-.607-.607-.456-.507.608zM93.123 41.553l.608.455.506-.556-.608-.456-.506.557zM88.16 47.473l-.455.556.608.456.456-.557-.608-.455z"/><path d="m93.276 42.614.455-.608-.607-.455-.456.607.608.456zM90.136 19.435c1.267-.506 2.634.05 2.988 1.265.355 1.215-.405 2.581-1.67 3.087-1.57.608-3.09 1.974-3.95 3.543-.406.709-.659 1.519-.862 2.328l.608.911a7.399 7.399 0 0 1 .912-2.885c.81-1.467 2.126-2.631 3.544-3.188a2.57 2.57 0 0 0 .81-.456l.963-1.063c.455-.759.607-1.67.354-2.53-.203-.76-.76-1.316-1.418-1.67-.76-.355-1.722-.405-2.532-.05-2.734 1.062-5.114 3.087-6.735 5.668l.456.708a13.195 13.195 0 0 1 6.532-5.668z"/><path d="M82.338 25.71c.152.405.202.81.202 1.266v.202a12.2 12.2 0 0 1 .76-1.67l.304-.456-.456-.708c-.152.253-.354.506-.456.81a3.4 3.4 0 0 0-.354.556zM87.25 31.178c0-.202 0-.405.05-.658l-.607-.91c-.05.303-.101.607-.152.961l.709.607zM93.478 22.977l-.962 1.062c.405-.303.709-.658.962-1.062zM85.578 38.97c-.962-.304-1.823-.86-2.43-1.721a4.378 4.378 0 0 1-.507-.81l-.152-.152c-.203-.202-.253-.455-.203-.709a9.221 9.221 0 0 1-.455-1.872 16.363 16.363 0 0 1-.102-1.62l-.709-1.063c-.05.911-.05 1.873.102 2.784.202 1.518.76 2.834 1.519 3.847a5.807 5.807 0 0 0 2.836 1.973c.05 0 .152.051.202.051a.745.745 0 0 0 .71-.557v-.1l-.507-.71-.304.658z"/><path d="M86.338 39.072c.051-.355-.1-.71-.455-.81l-.051.1.506.71zM81.933 29.305c-.304.05-.608.202-.81.455l-.051.05c-.05.456-.101.861-.152 1.317l.709 1.063c0-1.013.101-1.974.304-2.885zM86.643 32.95c.202.809.506 1.366.86 1.518l-.303.708c.05 0 .05 0 .1.05a.802.802 0 0 0 .963-.505c.101-.405-.101-.81-.456-.911-.05-.051-.101-.152-.202-.253l-.507-.456a2.363 2.363 0 0 1-.455-.152zM82.439 36.337l.152.152c-.152-.253-.253-.556-.405-.86 0 .253.05.506.253.709z"/><path d="m87.047 33.05-.506-.405c0 .1.05.253.05.354.153 0 .305.05.456.05zM82.084 28.445l-.05.05c.05 0 .05 0 .05-.05zM86.49 31.279c.152 0 .304.05.405.151.051 0 .152.051.355.051v-.354l-.71-.607c-.05.303-.05.556-.05.759z"/><path d="M87.25 32.24c0-.254-.051-.456-.051-.71-.203 0-.304-.05-.354-.05a.575.575 0 0 0-.406-.152v.253l.81.658zM81.072 29.508c0 .102-.05.203-.05.253l.05-.05c.203-.253.507-.405.81-.456l.152-.759c-.152.253-.354.456-.557.658-.101.152-.253.253-.405.354zM87.047 33.05l.506.456c-.05-.1-.101-.253-.152-.405-.1-.05-.202-.05-.354-.05zM86.49 32.139c.203.101.456.152.76.152v-.051l-.81-.658c.05.152.05.354.05.557z"/><path d="M87.3 32.289c-.303 0-.607-.051-.759-.152 0 .152 0 .303.05.455v.05l.507.406h.355a1.888 1.888 0 0 1-.102-.608c-.05-.05-.05-.1-.05-.151zM90.389 20.145c.456-.202.962-.202 1.316 0 .203.101.507.304.659.76.253.81-.304 1.77-1.216 2.125-1.772.709-3.392 2.126-4.355 3.897a12.078 12.078 0 0 0-.76 1.873l.558.86c.152-.81.456-1.62.86-2.328.862-1.62 2.33-2.935 3.95-3.543 1.267-.506 2.026-1.872 1.672-3.087-.355-1.215-1.722-1.772-2.988-1.265-2.684 1.063-5.013 3.087-6.583 5.617l.456.71c1.519-2.531 3.798-4.607 6.43-5.619z"/><path d="M83.047 27.94c.253-.709.507-1.367.912-2.025 0-.05.05-.101.1-.152l-.455-.708-.304.455c-.303.557-.557 1.063-.76 1.67 0 .203-.05.405-.1.608.202 0 .405.05.607.152zM85.832 30.011l.709.557c.05-.304.101-.607.152-.962l-.557-.86c-.152.456-.253.86-.304 1.265zM82.844 35.022a5.423 5.423 0 0 1-.303-1.367v-.253l-.861-1.265c0 .556.05 1.063.101 1.62.101.657.253 1.315.456 1.872.05-.152.05-.253.152-.354.1-.152.253-.203.455-.253zM82.59 36.441c.152.304.304.557.506.81.658.81 1.469 1.417 2.43 1.721l.254-.607-.101-.152a5.105 5.105 0 0 1-1.165-.608c-.658-.253-1.316-.657-1.924-1.164z"/><path d="m81.629 32.139.86 1.265a11.822 11.822 0 0 1 .203-3.998c-.202-.101-.354-.152-.557-.152h-.202a13.966 13.966 0 0 0-.304 2.885zM85.73 38.21l.102.153.05-.102c-.05 0-.05 0-.1-.05h-.051zM85.882 32.593c-.05-.05-.05-.1-.1-.1v.202l.1-.102z"/><path d="M85.781 32.695c.05.506.355 2.126 1.418 2.48l.304-.709c-.355-.1-.709-.708-.86-1.518-.305-.05-.558-.202-.76-.354l-.102.101zM83.705 36.795c-.203-.253-.355-.557-.507-.86-.101-.051-.152-.152-.253-.203l.101-.101c-.1-.203-.152-.405-.253-.608a1.8 1.8 0 0 0-.456.203.546.546 0 0 0-.151.354c.1.304.253.557.405.86.557.507 1.215.861 1.975 1.165-.304-.203-.608-.506-.861-.81z"/><path d="m85.882 32.596.304-.304-.456-.355c0 .203.051.355.051.557l.101.102zM83.198 35.983l-.151-.303-.102.1c.102.051.152.102.254.203z"/><path d="M86.642 32.947c-.05-.101-.05-.253-.05-.354l-.405-.355-.304.304c.202.253.456.354.76.405zM86.186 31.328c.101 0 .203-.05.253 0 0-.253 0-.456.05-.709l-.708-.556c-.05.303-.101.607-.101.91l.506.355zM82.084 28.494c.253 0 .506.05.76.152.05-.254.152-.507.202-.709a1.56 1.56 0 0 0-.658-.152c-.05.253-.152.456-.304.709z"/><path d="M86.49 31.277h-.254l.304.253c-.05-.05-.05-.151-.05-.253zM82.085 29.255c.203 0 .406.05.557.152l.152-.76a2.033 2.033 0 0 0-.76-.15l-.151.758h.202zM85.73 31.681c.051-.05.051-.101.102-.152.101-.101.253-.152.354-.202l-.456-.405v.76z"/><path d="M85.73 31.682v.203l.456.354.203-.253c.05.05.101.05.101.101 0-.202-.05-.354-.05-.557l-.304-.253a.818.818 0 0 0-.355.203c0 .101-.05.152-.05.202z"/><path d="M86.54 32.545c0-.152-.05-.304-.05-.456a.109.109 0 0 1-.102-.1l-.203.252.355.304c0 .05 0 .05 0 0zM102.34 52.84l1.266 1.923 22.787 16.955.506-.607L102.34 52.84zM126.9 71.108l.455-.557-26.332-19.637 1.317 1.923 24.56 18.271z"/><path d="m93.73 46.46 8.559 6.378-1.266-1.923-6.837-5.062c-.354-.253-.81-.202-1.063.152-.253.355-.203.81.152 1.063l10.33 7.693-1.266-1.923-8.608-6.377zM127 71.213l.405-.608-.051-.05-.456.556.102.102z"/><path d="m126.899 71.11-.506.607.151.1.456-.606-.101-.102zM76.211 34.468c-.05-.759.152-1.518.659-2.075l2.025-2.43a3.134 3.134 0 0 1-1.873-1.012L74.59 26.27a3.086 3.086 0 0 1-.81-2.277c.05-.81.354-1.519.911-2.126l-.304-.405c-1.67.304-2.886 1.771-2.886 3.492V36.29c0 1.923 1.62 3.543 3.545 3.543h1.316c.861 0 1.671-.304 2.279-.86l-1.57-2.733c-.506-.405-.81-1.063-.86-1.772zM74.792 21.764c.152-.152.354-.253.506-.405h-.253c-.203 0-.456 0-.658.051l.304.405c.05.05.05 0 .1-.05z"/><path d="m79.906 31.125-1.874 2.227c-.202.253-.354.607-.303.962.05.354.202.657.455.91.05.051.102.102.152.203l1.266 2.227c.203-.405.253-.86.253-1.367v-5.162h.051z"/><path d="M79.198 38.413 77.68 35.78c-.86-.76-1.012-2.075-.253-2.935l2.481-2.936c-.151.05-.354.05-.506.05-.152 0-.304 0-.456-.05l-2.025 2.43c-.507.556-.71 1.315-.659 2.075.051.708.355 1.366.912 1.822l1.57 2.733c.101-.152.303-.355.456-.557z"/><path d="M78.338 35.427a.697.697 0 0 0-.152-.202c-.254-.203-.456-.557-.456-.911 0-.355.101-.709.304-.962l1.873-2.227v-1.164l-2.48 2.935c-.76.86-.609 2.177.252 2.936l1.52 2.632.455-.76-1.316-2.277zM78.64 22.269l.457-.405c-1.064-.962-2.583-1.164-3.798-.405h1.063a3.09 3.09 0 0 1 2.279.81zM81.174 25.203c.455.506.658 1.164.607 1.822.152-.456.355-.86.557-1.316a4.138 4.138 0 0 0-.607-1.012l-.71-.76-.556.507.709.759zM79.906 29.61v.303l.101-.101-.1-.203zM80.514 29.254c.203-.253.506-.456.76-.557l.151-.607c-.1.202-.253.354-.405.506-.303.304-.709.456-1.063.557v.455l.101.152.456-.506z"/><path d="m80.007 29.809-.1.151c.05 0 .1-.05.202-.05l-.102-.101z"/><path d="m80.008 29.809.05.101c.355-.101.659-.203.963-.405.05-.253.1-.557.151-.81a1.656 1.656 0 0 0-.76.557l-.404.557zM81.578 27.786c.253-.05.507-.05.76-.05.05-.203.152-.406.202-.608v-.203c0-.455-.05-.86-.202-1.265-.203.405-.405.86-.557 1.316 0 .304-.102.557-.203.81zM81.273 28.696c.254-.101.507-.152.81-.152l.051-.05c.05-.253.152-.456.203-.709-.253 0-.507 0-.76.05l-.152.304c-.05.152-.1.355-.152.557z"/><path d="M81.528 29.154c.203-.202.405-.405.557-.658-.253 0-.557.05-.81.152-.05.253-.152.557-.152.81a1.66 1.66 0 0 0 .405-.304zM82.388 27.787c.051-.202.102-.405.102-.607-.051.202-.152.405-.203.607.05 0 .101-.05.101 0z"/><path d="M82.388 27.785h-.102a3.729 3.729 0 0 0-.202.709c.152-.253.253-.506.304-.709zM77.577 28.443l-2.43-2.683c-.862-.91-.811-2.328 0-3.239l-.457-.658c-.557.557-.911 1.316-.911 2.126-.05.86.253 1.67.81 2.277l2.43 2.683a3.134 3.134 0 0 0 1.874 1.012l.608-.759a2.35 2.35 0 0 1-1.924-.76z"/><path d="m74.691 21.866.456.657c.05-.05.101-.151.152-.202.911-.86 2.33-.81 3.24 0l.102-.101c-.608-.506-1.418-.86-2.279-.86H75.3c-.203.1-.354.252-.506.404-.051.05-.051.102-.102.102zM79.907 29.608l-.303-.405h-.102l-.608.76c.152 0 .304.05.456.05.152 0 .355 0 .507-.05v-.355h.05zM79.654 29.203l.304.405v-.456c-.152.051-.202.051-.304.051zM79.908 24.952l.658.759c.304.303.456.759.405 1.215 0 .455-.202.86-.557 1.164-.152.151-.354.253-.557.354v.354c.405-.506.962-.81 1.57-.91.101-.254.152-.558.253-.81a2.426 2.426 0 0 0-.607-1.823l-.71-.759-.556.506c.1-.101.1-.05.1-.05z"/><path d="M81.02 28.595c.152-.152.304-.354.406-.506.05-.101.05-.202.1-.253-.607.101-1.164.455-1.569.91v.406a2.7 2.7 0 0 0 1.063-.557zM81.578 27.786c.101-.253.152-.506.203-.81a4.984 4.984 0 0 0-.254.81c0 .051.051 0 .051 0z"/><path d="m81.426 28.089.152-.304h-.05c-.052.101-.102.203-.102.304zM75.147 25.762l2.43 2.683a2.35 2.35 0 0 0 1.924.759l.051-.101-.456-.709c-.354-.05-.709-.202-.962-.506l-2.43-2.682a1.752 1.752 0 0 1-.152-2.075l-.456-.658c-.76.961-.81 2.378.05 3.29z"/><path d="M79.908 28.749v-.354c-.253.1-.507.1-.81.05l.455.709.355-.405zM75.805 22.925c.304-.303.709-.405 1.114-.405h.101c.355 0 .709.152.962.355l.557-.506c-.911-.81-2.33-.86-3.24 0-.051.05-.102.151-.153.202l.456.658c.05-.152.102-.253.203-.304z"/><path d="M79.502 29.203h.101l-.05-.05-.051.05zM79.907 28.746l-.354.405.05.05c.102 0 .203-.05.304-.05v-.405zM79.653 22.372c.253-.253.658-.203.911.05.254.254.203.659-.05.912l.506.556c.253-.253.456-.607.456-.961 0-.355-.101-.76-.355-1.013-.253-.253-.607-.455-.962-.455-.354 0-.76.101-1.013.354l.152.152.355.405zM77.425 24.393c.202.203.456.304.709.253-.05.253 0 .506.152.709a.813.813 0 0 0 .557.253.65.65 0 0 0 .506-.202l.507-.456-.507-.557-.506.456-.861-.962.506-.455-.354-.405-.152-.152-.507.456a.734.734 0 0 0-.05 1.062z"/><path d="m79.198 22.774.456-.405-.355-.405-.152-.151-.456.404c.152.203.355.355.507.557zM80.505 23.32l-.562.512.512.561.561-.511-.511-.561zM79.045 22.877l.102-.101a5.52 5.52 0 0 0-.507-.557l-.1.101.151.152.354.405z"/><path d="m79.908 24.903.557-.506-.507-.557-.151.152c.05.303.1.607.1.91z"/><path d="M79.907 24.9c0-.355-.05-.659-.102-.912l-.405.355.507.556zM78.134 23.029l.355.405.557-.506-.355-.405-.152-.152-.557.506.152.152zM80.515 23.331c.253-.253.304-.658.05-.91-.252-.254-.657-.305-.91-.052l.86.962z"/><path d="m78.52 23.401-.524.478.853.935.524-.477-.853-.936zM79.957 23.839l.557-.506-.861-.962-.456.405c.152.202.304.405.405.658l.355.405z"/><path d="M79.604 23.431c-.101-.253-.253-.455-.405-.658l-.101.102.506.556zM79.806 23.99l.152-.151-.355-.405c.051.202.152.354.203.556z"/><path d="M79.805 23.988a2.468 2.468 0 0 0-.203-.556l-.506-.557-.557.506.86.962.406-.355zM131.001 66.504c.709-1.012 2.583-.961 3.596-.202l-2.583 3.593c.051.051.101.051.152.102l2.886-4.252c-1.316-.961-3.645-1.012-4.658.405l-.962 1.367.607.455.962-1.468z"/><path d="M132.217 69.997a.733.733 0 0 1 .303.456l2.684-3.695c.253-.354.152-.81-.152-1.063l-2.886 4.252s.051 0 .051.05zM127.557 70.3l1.215-1.469-.253-.202-.557.81a1.913 1.913 0 0 0-.405.86zM129.531 68.477l.456-.607-.607-.456-.456.607.607.456z"/><path d="m128.772 68.833-1.215 1.468v.152l.05-.05c.304-.406.76-.71 1.266-.912l.709-.961-.607-.456-.456.608.253.151zM130.545 68.428l1.064-1.468c.202-.253.607-.455 1.114-.455h.05c.203 0 .456.05.659.101l-2.127 2.935c.253.102.506.203.709.304l2.582-3.593c-1.012-.709-2.835-.81-3.595.202l-1.013 1.367.304.202c.101.152.203.253.253.405z"/><path d="M129.33 69.339c.152-.05.355-.05.557-.05h.051l.607-.861c-.05-.101-.152-.253-.253-.304l-.304-.202-.455.607.303.203-.506.607z"/><path d="m129.331 69.337.506-.658-.304-.202-.709.961c.152-.05.355-.05.507-.101zM129.278 74.094l-2.582 3.593c-.709-.506-1.216-1.518-1.266-2.379l-.355.456a1.045 1.045 0 0 1-.304.202c.203.911.76 1.822 1.469 2.329.051.05.101.05.203.1l2.886-4.301h-.051zM129.583 74.097h-.253l-2.887 4.302a.46.46 0 0 0 .254.05h.101c.202-.05.354-.151.506-.303l5.115-7.085c.152-.203.152-.405.101-.608l-2.431 3.391c-.101.101-.304.253-.506.253z"/><path d="M127.254 72.121s-.051 0 0 0h-.203l-2.38 2.885c-.05.304 0 .658.051.962.101-.051.203-.102.304-.203l.354-.455c0-.405.102-.76.304-1.063l1.57-2.126zM127.508 70.656c0-.051 0-.152.05-.203l-.101.152.051.05z"/><path d="m126.748 71.968-.203-.152-1.417 1.974c-.254.355-.405.81-.456 1.215l2.38-2.885-.304-.152zM127.507 71.516l-.456.556h.202l.304-.455s0-.05-.05-.101z"/><path d="m127.051 72.12.456-.557c-.051-.303-.051-.607-.051-.91l-.05-.051-.456.607.202.152-.202-.152-.456.607.203.152c.152.05.253.101.354.152zM129.734 70.048c.355-.05.76 0 1.114.102l.456-.659c-.304-.1-.658-.202-.962-.202l-.608.76z"/><path d="m129.735 70.048.608-.759h-.405l-.608.86c.101-.05.253-.05.405-.1zM129.33 74.096l1.063-1.569-1.114 1.519c0 .05.051.05.051.05zM131.71 70.552l.405-.607c-.05-.05-.101-.05-.151-.101l-.456.607c.101.05.152.05.202.101z"/><path d="m131.761 70.603-1.418 1.974-1.064 1.57h.253a1.05 1.05 0 0 0 .507-.305l2.431-3.39c-.051-.152-.152-.355-.304-.456 0 0-.051-.05-.102-.05l-.405.607c.102 0 .102 0 .102.05zM128.165 70.804l.051-.05v-.102l-.355.456c0 .05 0 .05.051.101l.253-.405z"/><path d="M127.658 70.753c.101.102.202.203.253.304l.354-.455c.051-.254.152-.557.304-.76l.304-.404c-.557.202-.962.506-1.266.91l-.051.051c0 .05 0 .101-.05.203l.152.151zM127.556 71.666l.355-.506c0-.05 0-.05-.051-.101l-.354.455c.05.05.05.101.05.152z"/><path d="m127.508 71.513.354-.456c-.051-.101-.152-.253-.253-.303l-.152-.102c0 .253 0 .557.051.86zM130.85 70.146c.253.051.506.152.709.304l.455-.607a1.768 1.768 0 0 0-.709-.304l-.455.607zM128.215 70.757a2.113 2.113 0 0 1 1.063-.658l.608-.86h-.051c-.202 0-.354.05-.557.05l-1.063 1.316c.05.101.05.101 0 .152z"/><path d="m128.266 70.656 1.063-1.316c-.152.05-.304.05-.456.101l-.304.405c-.202.253-.253.506-.303.81zM128.671 73.64l-2.077 2.835c-.405-.608-.557-1.367-.253-1.873l1.519-2.075c-.05-.05-.05-.101-.05-.152l-2.38 2.885c0 .91.557 1.872 1.266 2.379l2.582-3.594c-.101 0-.152-.05-.253-.101-.101-.05-.253-.203-.354-.304zM127.658 71.969a.576.576 0 0 1-.405.152l-1.519 2.075a1.867 1.867 0 0 0-.304 1.063l2.38-2.885a3.31 3.31 0 0 1-.152-.405z"/><path d="M127.254 72.124c.152 0 .253-.051.405-.152-.051-.102-.051-.203-.101-.304l-.304.456zM129.734 70.047l-.709.86v.102c.203-.152.557-.254.912-.254h.051c.151 0 .253 0 .405.051l.506-.658c-.405-.101-.81-.101-1.165-.101zM128.975 70.958l.709-.86c-.152 0-.254.05-.406.05l-.151.203c-.102.152-.152.354-.152.607zM129.077 73.034l-.456.608c.101.101.253.253.405.354.051.05.152.101.253.101l1.114-1.518 1.368-1.974c-.051-.05-.102-.05-.152-.101l-2.076 2.885c-.203-.152-.304-.253-.456-.355zM128.368 71.719l-.557.658c0 .05.05.1.05.151l.507-.708v-.101z"/><path d="M131.76 70.605s-.051 0-.051-.05l-1.367 1.974 1.418-1.924zM127.911 71.159c.051.202 0 .455-.101.658l-.152.152c.051.151.101.303.152.405l.557-.658c-.101-.304-.152-.658-.101-.962l-.051.05-.304.355z"/><path d="M127.81 71.818c.152-.202.202-.455.101-.658l-.354.506c0 .102.05.203.101.304l.152-.152zM130.646 70.908l-1.519 2.126c.101.151.253.252.405.354l2.076-2.885c-.202-.101-.456-.253-.709-.304l-.506.658c.051 0 .152 0 .253.05zM128.418 71.817l.405-.556c.051-.05.101-.152.202-.203v-.101l-.658.76c0 .05 0 .05.051.1z"/><path d="m128.367 71.717.659-.759c0-.253.05-.455.151-.607l.152-.203c-.405.102-.81.304-1.063.658-.051.253 0 .608.101.911z"/></g><defs><clipPath id="a"><path fill="#fff" d="M0 0h246v91H0z"/></clipPath></defs></svg>