<svg width="21" height="18" viewBox="0 0 21 18" fill="none" xmlns="http://www.w3.org/2000/svg">
<path opacity="0.8" d="M0.368236 8.63986L5.19624 10.4088L7.07833 16.3589C7.16016 16.761 7.65114 16.8414 7.97846 16.6002L10.6789 14.4292C10.9243 14.1879 11.3335 14.1879 11.6608 14.4292L16.4888 17.8867C16.8161 18.1279 17.3071 17.9671 17.3889 17.565L20.9895 0.67956C21.0713 0.277525 20.6622 -0.124507 20.253 0.0363074L0.368236 7.59457C-0.122745 7.75538 -0.122745 8.47904 0.368236 8.63986ZM6.83285 9.52433L16.3251 3.81544C16.4888 3.73503 16.6525 3.97625 16.4888 4.05666L8.71493 11.2129C8.46944 11.4541 8.22394 11.7757 8.22394 12.1778L7.97846 14.1075C7.97846 14.3488 7.56931 14.4292 7.48748 14.1075L6.5055 10.5696C6.26001 10.1676 6.42369 9.68515 6.83285 9.52433Z" fill="#393939"/>
</svg>
